*
%FSLAX43Y43*%
%MOMM*%
%ADD10C,0.750000*%
%ADD11C,7.000000*%
%ADD12C,1.300000*%
%ADD13C,0.250000*%
%ADD14C,0.650000*%
%ADD15C,0.600000*%
%ADD16C,1.000000*%
%ADD17C,1.600000*%
%ADD18C,1.100000*%
%ADD19C,2.000000*%
%ADD20C,3.750000*%
%ADD21C,3.250000*%
%ADD22C,3.500000*%
%ADD23C,1.500000*%
%ADD24C,2.200000*%
%ADD25C,5.000000*%
%ADD26C,0.100000*%
%ADD27C,0.200000*%
%ADD28C,0.500000*%
%IPPOS*%
%LNr4*%
%LPD*%
G75*
G54D10*
X2000Y9000D03*
Y6000D03*
Y16500D03*
Y11500D03*
Y14000D03*
Y19020D03*
Y21520D03*
Y24020D03*
Y26520D03*
Y29020D03*
Y31500D03*
Y34000D03*
Y36500D03*
Y39020D03*
Y41520D03*
Y44020D03*
Y46520D03*
Y49020D03*
Y51500D03*
Y54000D03*
Y57000D03*
Y60000D03*
Y62500D03*
Y65000D03*
Y67300D03*
X5379Y7229D03*
X4500Y9350D03*
X7500Y6350D03*
X4000Y6000D03*
X5379Y11471D03*
X7500Y12350D03*
X7000Y14000D03*
X4500D03*
X8250Y23430D03*
X8750Y27380D03*
X8250Y43430D03*
X8750Y47380D03*
X7900Y50920D03*
X8500Y57500D03*
X4500Y58500D03*
X7500Y60250D03*
X5379Y61129D03*
Y65371D03*
X7500Y66250D03*
X4500Y63250D03*
Y67300D03*
X9621Y7229D03*
X12000Y8000D03*
X10500Y9350D03*
X13500Y6000D03*
X10500D03*
X16000Y14500D03*
X13500Y10000D03*
Y13000D03*
X9621Y11471D03*
X12000Y11500D03*
X9500Y14000D03*
X12000D03*
X16000Y22380D03*
X11250Y22880D03*
X15900Y19370D03*
X15050Y18620D03*
X11250Y21880D03*
X10000Y19880D03*
X16000Y30500D03*
Y23880D03*
Y25380D03*
Y28100D03*
X11250Y25230D03*
Y26380D03*
X15900Y39370D03*
X16000Y42380D03*
Y43880D03*
X10000Y39880D03*
X15050Y38620D03*
X11250Y41880D03*
Y42880D03*
X16000Y45380D03*
Y48100D03*
Y50500D03*
X11250Y45230D03*
Y46380D03*
X14500Y54500D03*
X15500Y56800D03*
X14500D03*
X13500D03*
Y64200D03*
X15500D03*
X14500D03*
X11500Y60000D03*
X9621Y61129D03*
X10500Y63250D03*
X9621Y65371D03*
X15300Y67300D03*
X9500D03*
X12100D03*
X22000Y14500D03*
X23000Y15870D03*
X19000Y14500D03*
X17800Y15870D03*
X20000Y15820D03*
X21500Y23370D03*
X23000D03*
X18400Y22770D03*
X19700Y23220D03*
X23000Y18470D03*
Y20870D03*
X20800Y17380D03*
Y20680D03*
X17700D03*
X18400Y24870D03*
X18000Y26770D03*
X21700Y33300D03*
X22500Y35750D03*
X20100Y33300D03*
X20800Y37380D03*
X18400Y44870D03*
X22500Y38500D03*
Y40750D03*
X21500Y43370D03*
X23000D03*
X18400Y42770D03*
X19700Y43220D03*
X20800Y40680D03*
X17700D03*
X18000Y46770D03*
X21700Y53300D03*
X22000Y58500D03*
X17000Y56400D03*
X19250Y54250D03*
X20750D03*
X20900Y60500D03*
X21000Y67300D03*
X18300D03*
X29500Y15900D03*
X26000Y15870D03*
X30600Y22820D03*
X27850Y23320D03*
X26500Y23370D03*
X29500Y18520D03*
X28650Y20920D03*
X26000Y18520D03*
X26500Y20870D03*
X30450Y30770D03*
X30300Y26300D03*
X30450Y32670D03*
Y31720D03*
X29800Y35750D03*
X25000Y33750D03*
X27500D03*
X25000Y35750D03*
X27500D03*
X29800Y38500D03*
X30000Y40750D03*
Y43250D03*
X25000Y38500D03*
X27500D03*
Y40750D03*
Y43250D03*
X30450Y50770D03*
Y51720D03*
Y52670D03*
X30000Y56400D03*
X27500Y54500D03*
X24200Y57600D03*
X26500Y56800D03*
X27500D03*
X28500D03*
X24000Y59800D03*
X27900Y64200D03*
X28500Y65000D03*
X29100Y64200D03*
X27000Y65000D03*
X28300Y67300D03*
X24700D03*
X35500Y14500D03*
X34100Y16500D03*
X32000Y14500D03*
X37250Y15750D03*
X36250D03*
X37050Y22200D03*
X37100Y20100D03*
X32900Y18050D03*
X34950Y20050D03*
X33200Y22200D03*
X31900Y20920D03*
X37250Y18750D03*
Y16750D03*
X36250D03*
Y18750D03*
Y17750D03*
X37250D03*
X37400Y29600D03*
X32500Y30000D03*
X34700Y30100D03*
X36700Y25700D03*
X33500D03*
X34400Y26570D03*
X32700Y28000D03*
X35900Y31300D03*
X37500Y36050D03*
X32000Y35750D03*
X35000Y36050D03*
X37500Y38500D03*
Y40750D03*
Y43250D03*
X32000Y38500D03*
X35000D03*
X32000Y40750D03*
X35000D03*
X32000Y43250D03*
X35000D03*
X37500Y45500D03*
X36875Y51500D03*
X32000Y47250D03*
X35000Y47750D03*
X32000Y48500D03*
Y49750D03*
X37000Y57000D03*
X35000Y58500D03*
X32250Y54250D03*
X33750D03*
X37000Y59800D03*
X33900Y60500D03*
X31300Y67300D03*
X35600D03*
X40200Y14300D03*
X44750Y22500D03*
Y23500D03*
Y21500D03*
X38700Y22700D03*
X40100Y23300D03*
X44600Y19800D03*
X42900Y19400D03*
X41600Y19900D03*
X38250Y21000D03*
X39900Y19900D03*
X43000Y26500D03*
X44600Y29600D03*
X40500Y29520D03*
X44100Y24500D03*
X39250Y24350D03*
X42500Y24800D03*
X41350Y26450D03*
X39100Y28000D03*
X44750Y32050D03*
X39000Y31200D03*
X42550Y31570D03*
X41300Y33500D03*
X40000Y36050D03*
X38050Y33570D03*
X40000Y38500D03*
Y40750D03*
X42500D03*
X40000Y43250D03*
X42500D03*
X40000Y45500D03*
X42500D03*
X44000Y50000D03*
Y48000D03*
X40500Y48625D03*
X41500D03*
X40500Y49625D03*
X41500D03*
X40500Y50625D03*
X41500D03*
X42000Y57000D03*
X38500D03*
X40500Y65000D03*
X43750Y62750D03*
X42250Y63000D03*
X40750D03*
X39250D03*
X43700Y67300D03*
X40100D03*
X46650Y7100D03*
X47650D03*
X46650Y8100D03*
X47650D03*
X46650Y9100D03*
X47650D03*
X51000Y7250D03*
Y9000D03*
X49000Y7250D03*
Y9000D03*
X49625Y14125D03*
X51875Y10750D03*
Y11875D03*
X50750D03*
X49625Y13000D03*
X50750D03*
X46650Y10100D03*
X47650D03*
X44900Y14100D03*
X49000Y10750D03*
X46000Y22500D03*
Y23500D03*
Y21500D03*
X51200Y22100D03*
X48700Y16900D03*
X45700Y19800D03*
X50100D03*
X48700Y21300D03*
X51250Y28450D03*
X50050Y27950D03*
X45500Y25400D03*
X50050Y24950D03*
X51250Y25450D03*
X44900Y27200D03*
X48350Y25350D03*
Y28650D03*
X47750Y32050D03*
X45250Y33250D03*
Y34750D03*
Y36400D03*
X51750Y37650D03*
X48250Y33250D03*
Y34750D03*
X48350Y36400D03*
X50550Y38200D03*
X47500Y44750D03*
X49500D03*
X45000Y38500D03*
X48500Y39150D03*
X50700Y40250D03*
X47600Y40200D03*
X45000Y40750D03*
X47500Y42500D03*
X50700Y42400D03*
X45000Y44000D03*
X47300Y46500D03*
Y47700D03*
X48400Y47100D03*
Y48300D03*
X50600Y48400D03*
X48700Y49400D03*
X46000Y50000D03*
X51200Y55000D03*
X46700Y52400D03*
X45500Y55000D03*
X47500Y65000D03*
X45250Y62750D03*
X46000Y61300D03*
X48500Y67300D03*
X59030Y7250D03*
Y8550D03*
X53000Y9750D03*
Y10750D03*
X58100Y14500D03*
X55800Y14900D03*
X57600Y10000D03*
X56400Y11200D03*
X58500Y12500D03*
X55800Y13300D03*
X56250Y19350D03*
Y18350D03*
X59000Y22600D03*
X54000D03*
X55800Y16650D03*
X52400Y17500D03*
X54400D03*
X57100Y17400D03*
X53100Y20100D03*
X55300D03*
X57400D03*
X57250Y28750D03*
X56250D03*
X52750Y25450D03*
X54250D03*
X58300Y27800D03*
X52750Y28450D03*
X54250D03*
X57950Y34700D03*
X57150Y36950D03*
X58150D03*
X53250Y37550D03*
X57950Y33400D03*
X56500Y40050D03*
X55100Y41600D03*
X55000Y43250D03*
X56000D03*
X57000D03*
X58000D03*
X53250Y40550D03*
X57750Y40050D03*
X55250D03*
X56200Y38100D03*
X59000Y49250D03*
Y48250D03*
X58000Y48750D03*
Y47750D03*
X53000Y51000D03*
X52750Y46000D03*
X54000D03*
X55250D03*
X56500D03*
X55300Y51100D03*
X56400Y50000D03*
Y51100D03*
X55300Y50000D03*
X57000Y52500D03*
Y54000D03*
Y60200D03*
X58500D03*
X56500Y61900D03*
X58000D03*
X52000Y59500D03*
X52200Y67300D03*
X55000D03*
X58100D03*
X60380Y14500D03*
X59380D03*
X66000D03*
X61450Y15400D03*
X64100Y16300D03*
X65500D03*
X59900Y10800D03*
X64000Y10500D03*
X62300Y11600D03*
X64000Y11500D03*
X60950Y13450D03*
X64000Y13750D03*
X62300Y22500D03*
X61700Y18700D03*
X64000D03*
X61500Y20100D03*
X64000D03*
X65500D03*
X64000Y30500D03*
X65300Y25600D03*
X63500Y26000D03*
X62000D03*
X60400D03*
X59300Y27800D03*
X61900Y33400D03*
X64100Y33600D03*
X63000D03*
X65100Y33400D03*
X60800D03*
Y34500D03*
X65350Y35500D03*
X59300Y36900D03*
X60850Y37750D03*
Y36650D03*
X59500Y42700D03*
Y41600D03*
X62500Y44750D03*
X60550Y41000D03*
X63050Y41500D03*
X60750Y42750D03*
X64500Y44250D03*
X65450Y39500D03*
X63700Y51600D03*
X60000Y48250D03*
Y49250D03*
X60500Y53000D03*
Y54300D03*
X61250Y58000D03*
X59750D03*
X60500Y57000D03*
X61250Y56000D03*
X59750D03*
X64800Y60200D03*
X63700D03*
X60000D03*
X61500D03*
X59500Y61900D03*
Y65500D03*
X72000Y14500D03*
X67600Y23600D03*
X72100Y22500D03*
Y18700D03*
X70000Y30000D03*
X72100Y24300D03*
X73100Y28000D03*
X67300Y33000D03*
X71000Y36250D03*
X71100Y31700D03*
X71000Y33800D03*
X68400Y37500D03*
Y36300D03*
X67900Y39300D03*
Y40500D03*
X68000Y43500D03*
X71500Y44400D03*
X72500Y38900D03*
X71300D03*
X73000Y42800D03*
Y43900D03*
Y41700D03*
X66500Y49700D03*
X67500Y51000D03*
X66300D03*
X73250Y51250D03*
Y50250D03*
Y49250D03*
X72000Y55500D03*
Y57500D03*
X67000Y53100D03*
Y55500D03*
Y54300D03*
X73250Y52250D03*
Y53250D03*
X73000Y61400D03*
X71500D03*
X70500D03*
X67700D03*
X69500D03*
X72000Y59700D03*
X73500Y16500D03*
X78500Y17900D03*
X73900Y21600D03*
X76400Y17700D03*
X79900Y25400D03*
X75750Y27250D03*
X77000D03*
X78250Y25750D03*
X77000D03*
X75750D03*
X74500Y27250D03*
Y25750D03*
X78250Y27250D03*
X77200Y34300D03*
X76250Y31500D03*
X77250D03*
X78250D03*
X75250D03*
X74250D03*
X78250Y32500D03*
X77250D03*
X76250D03*
X75250D03*
X74250D03*
X74100Y43900D03*
Y41700D03*
Y42800D03*
X75500Y50500D03*
Y48700D03*
X79500Y51500D03*
Y50000D03*
Y48500D03*
X74000Y55500D03*
Y57500D03*
X79500Y56000D03*
Y54500D03*
X77600Y53000D03*
X75500D03*
X79500D03*
X77600Y58400D03*
X76400D03*
X79000Y60500D03*
X75000Y61400D03*
X80500Y63500D03*
X74000Y61400D03*
Y59700D03*
X77600Y59600D03*
X76400D03*
X78200Y67000D03*
X85300Y14700D03*
X80700Y14300D03*
Y16600D03*
X82500Y16500D03*
X83500D03*
X80700Y17900D03*
X86000Y16800D03*
X86100Y30700D03*
X85200Y25400D03*
X84750Y32500D03*
X85750D03*
Y33500D03*
X84750D03*
X85000Y37000D03*
X86000D03*
X85000Y36000D03*
X86000D03*
X87500Y38500D03*
Y64500D03*
X83500Y67000D03*
X92000Y14300D03*
X88500Y14700D03*
X91000Y22100D03*
X88500Y19300D03*
X91000Y25400D03*
X89500D03*
X90700Y31500D03*
X90000Y36000D03*
X91800Y32900D03*
X88500Y32700D03*
X93000Y41500D03*
X90000Y42500D03*
X93000Y38000D03*
X92500Y50600D03*
X90000Y51500D03*
X92500Y52400D03*
X90000Y60500D03*
X93000Y61500D03*
Y65000D03*
X90000Y67000D03*
X95400Y14400D03*
X95500Y19000D03*
Y29000D03*
X95000Y26200D03*
X95600Y32500D03*
X95500Y36000D03*
Y41500D03*
Y49200D03*
Y53800D03*
Y61500D03*
Y67000D03*
G54D11*
X7500Y9350D03*
Y63250D03*
G54D12*
X51200Y34800D03*
Y33000D03*
Y31200D03*
X54800Y34800D03*
X53000D03*
X54800Y33000D03*
X53000D03*
X54800Y31200D03*
X53000D03*
G54D13*
X1700Y-10000D02*
Y-6000D01*
X28500D01*
Y-10000D01*
X1700D01*
G54D14*
X49900Y51850D03*
X49100D03*
X49900Y52650D03*
X49100D03*
X62130Y7150D03*
X64150D03*
X62130Y7930D03*
X64150Y7900D03*
X62130Y8680D03*
X64150Y8700D03*
G54D15*
X6500Y4250D03*
X7500D03*
X8500D03*
X23120Y12500D03*
X24120D03*
X25120D03*
X36500Y4250D03*
X37500D03*
X38500D03*
X69000Y12500D03*
X70000D03*
X71000D03*
X92500D03*
X93500D03*
X94500D03*
G54D16*
X8500Y4250D02*
X6500D01*
X25120Y12500D02*
X23120D01*
X38500Y4250D02*
X36500D01*
X71000Y12500D02*
X69000D01*
X94500D02*
X92500D01*
G54D17*
X5230Y34000D03*
X7770D03*
X5230Y54000D03*
X7770D03*
X38500Y50000D03*
X43750Y55750D03*
X51250Y15500D03*
X49500Y18000D03*
X45950Y28550D03*
X58700Y25700D03*
X61500Y46500D03*
X64500D03*
X69000Y53500D03*
X80500Y39000D03*
X94700Y20500D03*
G54D18*
X87100Y43185D02*
X87600D01*
X87100Y44455D02*
X87600D01*
X87100Y45725D02*
X87600D01*
X87100Y46995D02*
X87600D01*
X87100Y48265D02*
X87600D01*
X87100Y49535D02*
X87600D01*
X87100Y50805D02*
X87600D01*
X87100Y52075D02*
X87600D01*
X87100Y53345D02*
X87600D01*
X87100Y54615D02*
X87600D01*
X87100Y55885D02*
X87600D01*
X87100Y57155D02*
X87600D01*
X87100Y58425D02*
X87600D01*
X87100Y59695D02*
X87600D01*
X87100Y60965D02*
X87600D01*
G54D19*
X57150Y7450D02*
Y5500D01*
G54D20*
X10780Y17360D03*
Y30500D03*
Y37360D03*
Y50500D03*
G54D21*
X81960Y43880D03*
Y48960D03*
Y59120D03*
Y54040D03*
G54D22*
X84500Y41330D03*
Y61670D03*
G54D23*
X12780Y22930D03*
X14280Y21930D03*
X12780Y24930D03*
X14280Y23930D03*
Y25930D03*
X12780Y44930D03*
Y42930D03*
X14280Y41930D03*
Y43930D03*
Y45930D03*
G54D24*
X95100Y38085D03*
Y64915D03*
G36*
X13521Y20313D02*
X13520Y20310D01*
X13519Y20307D01*
X13519Y20305D01*
X13446Y20087D01*
X13445Y20085D01*
X13444Y20082D01*
X13443Y20080D01*
X13372Y19970D01*
X13283Y19874D01*
X13179Y19795D01*
X13063Y19735D01*
X12938Y19697D01*
X12808Y19681D01*
X12678Y19687D01*
X12550Y19716D01*
X12430Y19767D01*
X12320Y19838D01*
X12224Y19927D01*
X12145Y20031D01*
X12085Y20147D01*
X12047Y20272D01*
X12031Y20402D01*
X12037Y20532D01*
X12066Y20660D01*
X12117Y20780D01*
X12188Y20890D01*
X12277Y20986D01*
X12381Y21065D01*
X12497Y21125D01*
X12622Y21163D01*
X12752Y21179D01*
X12882Y21173D01*
X13010Y21144D01*
X13130Y21093D01*
X13240Y21022D01*
X13336Y20933D01*
X13415Y20829D01*
X13475Y20713D01*
X13513Y20588D01*
X13529Y20458D01*
X13523Y20328D01*
X13521Y20313D01*
G37*
G36*
Y40313D02*
X13520Y40310D01*
X13519Y40307D01*
X13519Y40305D01*
X13446Y40087D01*
X13445Y40085D01*
X13444Y40082D01*
X13443Y40080D01*
X13372Y39970D01*
X13283Y39874D01*
X13179Y39795D01*
X13063Y39735D01*
X12938Y39697D01*
X12808Y39681D01*
X12678Y39687D01*
X12550Y39716D01*
X12430Y39767D01*
X12320Y39838D01*
X12224Y39927D01*
X12145Y40031D01*
X12085Y40147D01*
X12047Y40272D01*
X12031Y40402D01*
X12037Y40532D01*
X12066Y40660D01*
X12117Y40780D01*
X12188Y40890D01*
X12277Y40986D01*
X12381Y41065D01*
X12497Y41125D01*
X12622Y41163D01*
X12752Y41179D01*
X12882Y41173D01*
X13010Y41144D01*
X13130Y41093D01*
X13240Y41022D01*
X13336Y40933D01*
X13415Y40829D01*
X13475Y40713D01*
X13513Y40588D01*
X13529Y40458D01*
X13523Y40328D01*
X13521Y40313D01*
G37*
G36*
X13539Y20047D02*
X13540Y20050D01*
X13541Y20053D01*
X13541Y20055D01*
X13614Y20273D01*
X13615Y20275D01*
X13616Y20278D01*
X13617Y20280D01*
X13688Y20390D01*
X13777Y20486D01*
X13881Y20565D01*
X13997Y20625D01*
X14122Y20663D01*
X14252Y20679D01*
X14382Y20673D01*
X14510Y20644D01*
X14630Y20593D01*
X14740Y20522D01*
X14836Y20433D01*
X14915Y20329D01*
X14975Y20213D01*
X15013Y20088D01*
X15029Y19958D01*
X15023Y19828D01*
X14994Y19700D01*
X14943Y19580D01*
X14872Y19470D01*
X14783Y19374D01*
X14679Y19295D01*
X14563Y19235D01*
X14438Y19197D01*
X14308Y19181D01*
X14178Y19187D01*
X14050Y19216D01*
X13930Y19267D01*
X13820Y19338D01*
X13724Y19427D01*
X13645Y19531D01*
X13585Y19647D01*
X13547Y19772D01*
X13531Y19902D01*
X13537Y20032D01*
X13539Y20047D01*
G37*
G36*
Y40047D02*
X13540Y40050D01*
X13541Y40053D01*
X13541Y40055D01*
X13614Y40273D01*
X13615Y40275D01*
X13616Y40278D01*
X13617Y40280D01*
X13688Y40390D01*
X13777Y40486D01*
X13881Y40565D01*
X13997Y40625D01*
X14122Y40663D01*
X14252Y40679D01*
X14382Y40673D01*
X14510Y40644D01*
X14630Y40593D01*
X14740Y40522D01*
X14836Y40433D01*
X14915Y40329D01*
X14975Y40213D01*
X15013Y40088D01*
X15029Y39958D01*
X15023Y39828D01*
X14994Y39700D01*
X14943Y39580D01*
X14872Y39470D01*
X14783Y39374D01*
X14679Y39295D01*
X14563Y39235D01*
X14438Y39197D01*
X14308Y39181D01*
X14178Y39187D01*
X14050Y39216D01*
X13930Y39267D01*
X13820Y39338D01*
X13724Y39427D01*
X13645Y39531D01*
X13585Y39647D01*
X13547Y39772D01*
X13531Y39902D01*
X13537Y40032D01*
X13539Y40047D01*
G37*
G54D25*
X92120Y46420D03*
Y56580D03*
G54D26*
X45409Y91D02*
X64891D01*
X64981Y181D02*
X45319D01*
X45228Y272D02*
X65072D01*
X65162Y362D02*
X45138D01*
X45050Y453D02*
X65250D01*
Y544D02*
X45050D01*
Y634D02*
X65250D01*
Y725D02*
X45050D01*
Y815D02*
X65250D01*
Y906D02*
X45050D01*
Y997D02*
X65250D01*
Y1087D02*
X45050D01*
Y1178D02*
X65250D01*
Y1268D02*
X45050D01*
Y1359D02*
X65250D01*
Y1450D02*
X45050D01*
Y1540D02*
X65250D01*
Y1631D02*
X45050D01*
Y450D02*
X45450Y50D01*
X64850D01*
X65250Y450D01*
Y5700D01*
X45050D01*
Y450D01*
Y1721D02*
X65250D01*
Y1812D02*
X45050D01*
Y1903D02*
X65250D01*
Y1993D02*
X45050D01*
Y2084D02*
X65250D01*
Y2174D02*
X45050D01*
Y2265D02*
X65250D01*
Y2356D02*
X45050D01*
Y2446D02*
X65250D01*
Y2537D02*
X45050D01*
Y2627D02*
X65250D01*
Y2718D02*
X45050D01*
Y2809D02*
X65250D01*
Y2899D02*
X45050D01*
Y2990D02*
X65250D01*
Y3080D02*
X45050D01*
Y3171D02*
X65250D01*
Y3262D02*
X45050D01*
Y3352D02*
X65250D01*
Y3443D02*
X45050D01*
Y3533D02*
X65250D01*
Y3624D02*
X45050D01*
Y3715D02*
X65250D01*
Y3805D02*
X45050D01*
Y3896D02*
X65250D01*
Y3986D02*
X45050D01*
Y4077D02*
X65250D01*
Y4168D02*
X45050D01*
Y4258D02*
X65250D01*
Y4349D02*
X45050D01*
Y4439D02*
X65250D01*
Y4530D02*
X45050D01*
Y4621D02*
X65250D01*
Y4711D02*
X45050D01*
Y4802D02*
X65250D01*
Y4892D02*
X45050D01*
Y4983D02*
X65250D01*
Y5074D02*
X45050D01*
Y5164D02*
X65250D01*
Y5255D02*
X45050D01*
Y5345D02*
X65250D01*
Y5436D02*
X45050D01*
Y5527D02*
X65250D01*
Y5617D02*
X45050D01*
G36*
X13446Y27773D02*
X13519Y27555D01*
X13520Y27553D01*
X13520Y27550D01*
X13521Y27547D01*
X13530Y27417D01*
X13516Y27287D01*
X13480Y27161D01*
X13423Y27044D01*
X13346Y26938D01*
X13252Y26847D01*
X13144Y26774D01*
X13024Y26721D01*
X12897Y26689D01*
X12767Y26680D01*
X12637Y26694D01*
X12511Y26730D01*
X12394Y26787D01*
X12288Y26864D01*
X12197Y26958D01*
X12124Y27066D01*
X12071Y27186D01*
X12039Y27313D01*
X12030Y27443D01*
X12044Y27573D01*
X12080Y27699D01*
X12137Y27816D01*
X12214Y27922D01*
X12308Y28013D01*
X12416Y28086D01*
X12536Y28139D01*
X12663Y28171D01*
X12793Y28180D01*
X12923Y28166D01*
X13049Y28130D01*
X13166Y28073D01*
X13272Y27996D01*
X13363Y27902D01*
X13436Y27794D01*
X13443Y27780D01*
X13444Y27778D01*
X13445Y27775D01*
X13446Y27773D01*
G37*
G36*
Y47773D02*
X13519Y47555D01*
X13520Y47553D01*
X13520Y47550D01*
X13521Y47547D01*
X13530Y47417D01*
X13516Y47287D01*
X13480Y47161D01*
X13423Y47044D01*
X13346Y46938D01*
X13252Y46847D01*
X13144Y46774D01*
X13024Y46721D01*
X12897Y46689D01*
X12767Y46680D01*
X12637Y46694D01*
X12511Y46730D01*
X12394Y46787D01*
X12288Y46864D01*
X12197Y46958D01*
X12124Y47066D01*
X12071Y47186D01*
X12039Y47313D01*
X12030Y47443D01*
X12044Y47573D01*
X12080Y47699D01*
X12137Y47816D01*
X12214Y47922D01*
X12308Y48013D01*
X12416Y48086D01*
X12536Y48139D01*
X12663Y48171D01*
X12793Y48180D01*
X12923Y48166D01*
X13049Y48130D01*
X13166Y48073D01*
X13272Y47996D01*
X13363Y47902D01*
X13436Y47794D01*
X13443Y47780D01*
X13444Y47778D01*
X13445Y47775D01*
X13446Y47773D01*
G37*
G54D27*
X0Y68500D02*
Y78500D01*
X97000D01*
Y68500D01*
X0D01*
Y4500D01*
X6000D01*
G02X7000Y3500I0J-1000D01*
G02X6000Y2500I-1000J0D01*
G01X0D01*
Y0D01*
X41350D01*
Y2500D01*
X39000D01*
G02X38000Y3500I0J1000D01*
G02X39000Y4500I1000J0D01*
G01X41350D01*
Y10925D01*
G02X43175Y12750I1825J0D01*
G02X45000Y10925I0J-1825D01*
G01Y500D01*
X45500Y0D01*
X55700D01*
X56200Y500D01*
Y7450D01*
G02X57150Y8400I950J0D01*
G02X58100Y7450I0J-950D01*
G01Y500D01*
X58600Y0D01*
X64800D01*
X65300Y500D01*
Y11750D01*
G02X66300Y12750I1000J0D01*
G01X68500D01*
G02X69500Y11750I0J-1000D01*
G02X68500Y10750I-1000J0D01*
G01X67300D01*
Y0D01*
X97000D01*
Y10750D01*
X95000D01*
G02X94000Y11750I0J1000D01*
G02X95000Y12750I1000J0D01*
G01X97000D01*
Y68500D01*
X16269Y2537D02*
X0D01*
Y2718D02*
X16623D01*
X16799Y2899D02*
X0D01*
Y3080D02*
X16908D01*
X16971Y3262D02*
X0D01*
Y3443D02*
X16998D01*
X17000Y3624D02*
X0D01*
Y3805D02*
X17000D01*
Y3986D02*
X0D01*
Y4168D02*
X17000D01*
Y4349D02*
X0D01*
Y4500D02*
Y2500D01*
X16000D01*
G03X17000Y3500I0J1000D01*
G01Y10750D01*
X24250D01*
Y12750D01*
X16000D01*
G03X15000Y11750I0J-1000D01*
G01Y4500D01*
X0D01*
X12750Y2500D02*
X16000D01*
G03X17000Y3500I0J1000D01*
G01Y10750D01*
X22620D01*
G03X23620Y11750I0J1000D01*
G03X22620Y12750I-1000J0D01*
G01X16000D01*
G03X15000Y11750I0J-1000D01*
G01Y4500D01*
X9000D01*
G03X8000Y3500I0J-1000D01*
G03X9000Y2500I1000J0D01*
G01X12750D01*
X15000Y4530D02*
X17000D01*
Y4711D02*
X15000D01*
Y4892D02*
X17000D01*
Y5074D02*
X15000D01*
Y5255D02*
X17000D01*
Y5436D02*
X15000D01*
Y5617D02*
X17000D01*
Y5798D02*
X15000D01*
Y5980D02*
X17000D01*
Y6161D02*
X15000D01*
Y6342D02*
X17000D01*
Y6523D02*
X15000D01*
Y6704D02*
X17000D01*
Y6886D02*
X15000D01*
Y7067D02*
X17000D01*
Y7248D02*
X15000D01*
Y7429D02*
X17000D01*
Y7610D02*
X15000D01*
Y7792D02*
X17000D01*
Y7973D02*
X15000D01*
Y8154D02*
X17000D01*
Y8335D02*
X15000D01*
Y8516D02*
X17000D01*
Y8698D02*
X15000D01*
Y8879D02*
X17000D01*
Y9060D02*
X15000D01*
Y9241D02*
X17000D01*
Y9422D02*
X15000D01*
Y9604D02*
X17000D01*
Y9785D02*
X15000D01*
Y9966D02*
X17000D01*
Y10147D02*
X15000D01*
Y10328D02*
X17000D01*
Y10510D02*
X15000D01*
Y10691D02*
X17000D01*
X24250Y10872D02*
X15000D01*
Y11053D02*
X24250D01*
Y11234D02*
X15000D01*
Y11416D02*
X24250D01*
Y11597D02*
X15000D01*
Y11778D02*
X24250D01*
Y11959D02*
X15022D01*
X15079Y12140D02*
X24250D01*
Y12322D02*
X15179D01*
X15342Y12503D02*
X24250D01*
Y12684D02*
X15643D01*
X33350Y10872D02*
X24250D01*
Y11053D02*
X33350D01*
Y11234D02*
X24250D01*
Y11416D02*
X33350D01*
Y11597D02*
X24250D01*
Y11778D02*
X33350D01*
X33328Y11959D02*
X24250D01*
Y12140D02*
X33271D01*
X33171Y12322D02*
X24250D01*
Y12503D02*
X33008D01*
X32707Y12684D02*
X24250D01*
X26625Y10750D02*
X31350D01*
Y3500D01*
G03X32350Y2500I1000J0D01*
G01X37500D01*
Y4500D01*
X33350D01*
Y11750D01*
G03X32350Y12750I-1000J0D01*
G01X24250D01*
Y10750D01*
X26625D01*
X35175Y4500D02*
X33350D01*
Y11750D01*
G03X32350Y12750I-1000J0D01*
G01X25620D01*
G03X24620Y11750I0J-1000D01*
G03X25620Y10750I1000J0D01*
G01X31350D01*
Y3500D01*
G03X32350Y2500I1000J0D01*
G01X36000D01*
G03X37000Y3500I0J1000D01*
G03X36000Y4500I-1000J0D01*
G01X35175D01*
X37500Y2537D02*
X32081D01*
X31727Y2718D02*
X37500D01*
Y2899D02*
X31551D01*
X31442Y3080D02*
X37500D01*
Y3262D02*
X31379D01*
X31352Y3443D02*
X37500D01*
Y3624D02*
X31350D01*
Y3805D02*
X37500D01*
Y3986D02*
X31350D01*
Y4168D02*
X37500D01*
Y4349D02*
X31350D01*
Y4530D02*
X33350D01*
Y4711D02*
X31350D01*
Y4892D02*
X33350D01*
Y5074D02*
X31350D01*
Y5255D02*
X33350D01*
Y5436D02*
X31350D01*
Y5617D02*
X33350D01*
Y5798D02*
X31350D01*
Y5980D02*
X33350D01*
Y6161D02*
X31350D01*
Y6342D02*
X33350D01*
Y6523D02*
X31350D01*
Y6704D02*
X33350D01*
Y6886D02*
X31350D01*
Y7067D02*
X33350D01*
Y7248D02*
X31350D01*
Y7429D02*
X33350D01*
Y7610D02*
X31350D01*
Y7792D02*
X33350D01*
Y7973D02*
X31350D01*
Y8154D02*
X33350D01*
Y8335D02*
X31350D01*
Y8516D02*
X33350D01*
Y8698D02*
X31350D01*
Y8879D02*
X33350D01*
Y9060D02*
X31350D01*
Y9241D02*
X33350D01*
Y9422D02*
X31350D01*
Y9604D02*
X33350D01*
Y9785D02*
X31350D01*
Y9966D02*
X33350D01*
Y10147D02*
X31350D01*
Y10328D02*
X33350D01*
Y10510D02*
X31350D01*
Y10691D02*
X33350D01*
X41350Y181D02*
X45319D01*
X45138Y362D02*
X41350D01*
Y544D02*
X45000D01*
Y725D02*
X41350D01*
Y906D02*
X45000D01*
Y1087D02*
X41350D01*
Y1268D02*
X45000D01*
Y1450D02*
X41350D01*
Y1631D02*
X45000D01*
X37500Y2500D02*
Y4500D01*
X41350D01*
Y10925D01*
G02X43175Y12750I1825J0D01*
G02X45000Y10925I0J-1825D01*
G01Y500D01*
X45500Y0D01*
X41350D01*
Y2500D01*
X37500D01*
X45000Y1812D02*
X41350D01*
Y1993D02*
X45000D01*
Y2174D02*
X41350D01*
Y2356D02*
X45000D01*
Y2537D02*
X37500D01*
Y2718D02*
X45000D01*
Y2899D02*
X37500D01*
Y3080D02*
X45000D01*
Y3262D02*
X37500D01*
Y3443D02*
X45000D01*
Y3624D02*
X37500D01*
Y3805D02*
X45000D01*
Y3986D02*
X37500D01*
Y4168D02*
X45000D01*
Y4349D02*
X37500D01*
X41350Y4530D02*
X45000D01*
Y4711D02*
X41350D01*
Y4892D02*
X45000D01*
Y5074D02*
X41350D01*
Y5255D02*
X45000D01*
Y5436D02*
X41350D01*
Y5617D02*
X45000D01*
Y5798D02*
X41350D01*
Y5980D02*
X45000D01*
Y6161D02*
X41350D01*
Y6342D02*
X45000D01*
Y6523D02*
X41350D01*
Y6704D02*
X45000D01*
Y6886D02*
X41350D01*
Y7067D02*
X45000D01*
Y7248D02*
X41350D01*
Y7429D02*
X45000D01*
Y7610D02*
X41350D01*
Y7792D02*
X45000D01*
Y7973D02*
X41350D01*
Y8154D02*
X45000D01*
Y8335D02*
X41350D01*
Y8516D02*
X45000D01*
Y8698D02*
X41350D01*
Y8879D02*
X45000D01*
Y9060D02*
X41350D01*
Y9241D02*
X45000D01*
Y9422D02*
X41350D01*
Y9604D02*
X45000D01*
Y9785D02*
X41350D01*
Y9966D02*
X45000D01*
Y10147D02*
X41350D01*
Y10328D02*
X45000D01*
Y10510D02*
X41350D01*
Y10691D02*
X45000D01*
Y10872D02*
X41350D01*
X41355Y11053D02*
X44996D01*
X44974Y11234D02*
X41376D01*
X41417Y11416D02*
X44933D01*
X44872Y11597D02*
X41478D01*
X41562Y11778D02*
X44788D01*
X44679Y11959D02*
X41671D01*
X41814Y12140D02*
X44536D01*
X44350Y12322D02*
X42000D01*
X42258Y12503D02*
X44092D01*
X43661Y12684D02*
X42689D01*
X64981Y181D02*
X67300D01*
Y362D02*
X65162D01*
X65300Y544D02*
X67300D01*
Y725D02*
X65300D01*
Y906D02*
X67300D01*
Y1087D02*
X65300D01*
Y1268D02*
X67300D01*
Y1450D02*
X65300D01*
Y1631D02*
X67300D01*
X97000Y12750D02*
Y10750D01*
X67300D01*
Y0D01*
X64800D01*
X65300Y500D01*
Y11750D01*
G02X66300Y12750I1000J0D01*
G01X97000D01*
X67300Y1812D02*
X65300D01*
Y1993D02*
X67300D01*
Y2174D02*
X65300D01*
Y2356D02*
X67300D01*
Y2537D02*
X65300D01*
Y2718D02*
X67300D01*
Y2899D02*
X65300D01*
Y3080D02*
X67300D01*
Y3262D02*
X65300D01*
Y3443D02*
X67300D01*
Y3624D02*
X65300D01*
Y3805D02*
X67300D01*
Y3986D02*
X65300D01*
Y4168D02*
X67300D01*
Y4349D02*
X65300D01*
Y4530D02*
X67300D01*
Y4711D02*
X65300D01*
Y4892D02*
X67300D01*
Y5074D02*
X65300D01*
Y5255D02*
X67300D01*
Y5436D02*
X65300D01*
Y5617D02*
X67300D01*
Y5798D02*
X65300D01*
Y5980D02*
X67300D01*
Y6161D02*
X65300D01*
Y6342D02*
X67300D01*
Y6523D02*
X65300D01*
Y6704D02*
X67300D01*
Y6886D02*
X65300D01*
Y7067D02*
X67300D01*
Y7248D02*
X65300D01*
Y7429D02*
X67300D01*
Y7610D02*
X65300D01*
Y7792D02*
X67300D01*
Y7973D02*
X65300D01*
Y8154D02*
X67300D01*
Y8335D02*
X65300D01*
Y8516D02*
X67300D01*
Y8698D02*
X65300D01*
Y8879D02*
X67300D01*
Y9060D02*
X65300D01*
Y9241D02*
X67300D01*
Y9422D02*
X65300D01*
Y9604D02*
X67300D01*
Y9785D02*
X65300D01*
Y9966D02*
X67300D01*
Y10147D02*
X65300D01*
Y10328D02*
X67300D01*
Y10510D02*
X65300D01*
Y10691D02*
X67300D01*
X97000Y10872D02*
X65300D01*
Y11053D02*
X97000D01*
Y11234D02*
X65300D01*
Y11416D02*
X97000D01*
Y11597D02*
X65300D01*
Y11778D02*
X97000D01*
Y11959D02*
X65322D01*
X65379Y12140D02*
X97000D01*
Y12322D02*
X65479D01*
X65642Y12503D02*
X97000D01*
Y12684D02*
X65943D01*
X90250Y12750D02*
X71500D01*
G03X70500Y11750I0J-1000D01*
G03X71500Y10750I1000J0D01*
G01X92000D01*
G03X93000Y11750I0J1000D01*
G03X92000Y12750I-1000J0D01*
G01X90250D01*
G36*
X13614Y27587D02*
X13541Y27805D01*
X13540Y27807D01*
X13540Y27810D01*
X13539Y27813D01*
X13530Y27943D01*
X13544Y28073D01*
X13580Y28199D01*
X13637Y28316D01*
X13714Y28422D01*
X13808Y28513D01*
X13916Y28586D01*
X14036Y28639D01*
X14163Y28671D01*
X14293Y28680D01*
X14423Y28666D01*
X14549Y28630D01*
X14666Y28573D01*
X14772Y28496D01*
X14863Y28402D01*
X14936Y28294D01*
X14989Y28174D01*
X15021Y28047D01*
X15030Y27917D01*
X15016Y27787D01*
X14980Y27661D01*
X14923Y27544D01*
X14846Y27438D01*
X14752Y27347D01*
X14644Y27274D01*
X14524Y27221D01*
X14397Y27189D01*
X14267Y27180D01*
X14137Y27194D01*
X14011Y27230D01*
X13894Y27287D01*
X13788Y27364D01*
X13697Y27458D01*
X13624Y27566D01*
X13617Y27580D01*
X13616Y27582D01*
X13615Y27585D01*
X13614Y27587D01*
G37*
G36*
Y47587D02*
X13541Y47805D01*
X13540Y47807D01*
X13540Y47810D01*
X13539Y47813D01*
X13530Y47943D01*
X13544Y48073D01*
X13580Y48199D01*
X13637Y48316D01*
X13714Y48422D01*
X13808Y48513D01*
X13916Y48586D01*
X14036Y48639D01*
X14163Y48671D01*
X14293Y48680D01*
X14423Y48666D01*
X14549Y48630D01*
X14666Y48573D01*
X14772Y48496D01*
X14863Y48402D01*
X14936Y48294D01*
X14989Y48174D01*
X15021Y48047D01*
X15030Y47917D01*
X15016Y47787D01*
X14980Y47661D01*
X14923Y47544D01*
X14846Y47438D01*
X14752Y47347D01*
X14644Y47274D01*
X14524Y47221D01*
X14397Y47189D01*
X14267Y47180D01*
X14137Y47194D01*
X14011Y47230D01*
X13894Y47287D01*
X13788Y47364D01*
X13697Y47458D01*
X13624Y47566D01*
X13617Y47580D01*
X13616Y47582D01*
X13615Y47585D01*
X13614Y47587D01*
G37*
G54D28*
X6718Y-9319D02*
Y-6819D01*
X7601D02*
X5835D01*
X8643Y-7111D02*
X8850Y-6916D01*
X9266Y-6819D01*
X9474D01*
X9785Y-6916D01*
X9889Y-7014D01*
X9993Y-7306D01*
Y-7501D01*
X9889Y-7696D01*
X9682Y-7793D01*
X9266Y-7890D01*
X8954Y-7988D01*
X8643Y-8150D01*
X8539Y-8442D01*
Y-8637D01*
X8643Y-8929D01*
X8850Y-9124D01*
X9266Y-9319D01*
X9474D01*
X9889Y-9222D01*
X10201Y-8929D01*
X12126Y-6819D02*
X11321D01*
X11710Y-9319D02*
Y-6819D01*
X12126Y-9319D02*
X11321D01*
X13505Y-7111D02*
X13713Y-6916D01*
X14128Y-6819D01*
X14336D01*
X14648Y-6916D01*
X14752Y-7014D01*
X14856Y-7306D01*
Y-7501D01*
X14752Y-7696D01*
X14544Y-7793D01*
X14128Y-7890D01*
X13817Y-7988D01*
X13505Y-8150D01*
X13401Y-8442D01*
Y-8637D01*
X13505Y-8929D01*
X13713Y-9124D01*
X14128Y-9319D01*
X14336D01*
X14752Y-9222D01*
X15063Y-8929D01*
X15897Y-6819D02*
X17663D01*
Y-9319D01*
X15897D01*
X22877Y-8276D02*
Y-9250D01*
X23059Y-6750D02*
X24150Y-8763D01*
X22384D01*
X17663Y-8053D02*
X16183D01*
X19276D02*
X18601Y-9319D01*
X20263D02*
Y-6819D01*
X19172D01*
X18991Y-6916D01*
X18783Y-7111D01*
X18705Y-7306D01*
Y-7598D01*
X18887Y-7988D01*
X19095Y-8053D01*
X20263D01*
X26750Y-6750D02*
Y-9250D01*
X24984D01*
M02*
