*
%FSLAX43Y43*%
%MOMM*%
%ADD10C,0.750000*%
%ADD11C,7.000000*%
%ADD12R,2.400000X2.400000*%
%ADD13C,0.600000*%
%ADD14C,1.600000*%
%ADD15R,0.800000X0.800000*%
%ADD16C,0.100000*%
%ADD17R,1.100000X1.100000*%
%ADD18R,5.800000X5.800000*%
%ADD19R,3.000000X3.000000*%
%ADD20R,1.400000X1.400000*%
%ADD21R,1.000000X1.000000*%
%ADD22R,0.700000X0.700000*%
%ADD23R,0.400000X0.400000*%
%ADD24R,2.000000X2.000000*%
%ADD25R,1.700000X1.700000*%
%ADD26C,3.750000*%
%ADD27R,1.300000X1.300000*%
%ADD28R,0.300000X0.300000*%
%ADD29C,1.500000*%
%ADD30C,1.300000*%
%ADD31R,1.200000X1.200000*%
%ADD32C,0.200000*%
%ADD33R,0.500000X0.500000*%
%ADD34R,0.600000X0.600000*%
%ADD35R,0.250000X0.250000*%
%ADD36C,1.000000*%
%ADD37R,1.500000X1.500000*%
%ADD38C,1.100000*%
%ADD39C,2.000000*%
%ADD40C,3.250000*%
%ADD41C,0.650000*%
%ADD42C,3.500000*%
%ADD43R,2.600000X2.600000*%
%ADD44C,2.200000*%
%ADD45C,5.000000*%
%ADD46C,0.500000*%
%ADD47C,0.250000*%
%IPPOS*%
%LNr1*%
%LPD*%
G75*
G54D10*
X2000Y9000D03*
Y6000D03*
Y16500D03*
Y11500D03*
Y14000D03*
Y19020D03*
Y21520D03*
Y24020D03*
Y26520D03*
Y29020D03*
Y31500D03*
Y34000D03*
Y36500D03*
Y39020D03*
Y41520D03*
Y44020D03*
Y46520D03*
Y49020D03*
Y51500D03*
Y54000D03*
Y57000D03*
Y60000D03*
Y62500D03*
Y65000D03*
Y67300D03*
X5379Y7229D03*
X4500Y9350D03*
X7500Y6350D03*
X4000Y6000D03*
X5379Y11471D03*
X7500Y12350D03*
X7000Y14000D03*
X4500D03*
X8250Y23430D03*
X8750Y27380D03*
X8250Y43430D03*
X8750Y47380D03*
X7900Y50920D03*
X8500Y57500D03*
X4500Y58500D03*
X7500Y60250D03*
X5379Y61129D03*
Y65371D03*
X7500Y66250D03*
X4500Y63250D03*
Y67300D03*
X9621Y7229D03*
X12000Y8000D03*
X10500Y9350D03*
X13500Y6000D03*
X10500D03*
X16000Y14500D03*
X13500Y10000D03*
Y13000D03*
X9621Y11471D03*
X12000Y11500D03*
X9500Y14000D03*
X12000D03*
X16000Y22380D03*
X11250Y22880D03*
X15900Y19370D03*
X15050Y18620D03*
X11250Y21880D03*
X10000Y19880D03*
X16000Y30500D03*
Y23880D03*
Y25380D03*
Y28100D03*
X11250Y25230D03*
Y26380D03*
X15900Y39370D03*
X16000Y42380D03*
Y43880D03*
X10000Y39880D03*
X15050Y38620D03*
X11250Y41880D03*
Y42880D03*
X16000Y45380D03*
Y48100D03*
Y50500D03*
X11250Y45230D03*
Y46380D03*
X14500Y54500D03*
X15500Y56800D03*
X14500D03*
X13500D03*
Y64200D03*
X15500D03*
X14500D03*
X11500Y60000D03*
X9621Y61129D03*
X10500Y63250D03*
X9621Y65371D03*
X15300Y67300D03*
X9500D03*
X12100D03*
X22000Y14500D03*
X23000Y15870D03*
X19000Y14500D03*
X17800Y15870D03*
X20000Y15820D03*
X21500Y23370D03*
X23000D03*
X18400Y22770D03*
X19700Y23220D03*
X23000Y18470D03*
Y20870D03*
X20800Y17380D03*
Y20680D03*
X17700D03*
X18400Y24870D03*
X18000Y26770D03*
X21700Y33300D03*
X22500Y35750D03*
X20100Y33300D03*
X20800Y37380D03*
X18400Y44870D03*
X22500Y38500D03*
Y40750D03*
X21500Y43370D03*
X23000D03*
X18400Y42770D03*
X19700Y43220D03*
X20800Y40680D03*
X17700D03*
X18000Y46770D03*
X21700Y53300D03*
X22000Y58500D03*
X17000Y56400D03*
X19250Y54250D03*
X20750D03*
X20900Y60500D03*
X21000Y67300D03*
X18300D03*
X29500Y15900D03*
X26000Y15870D03*
X30600Y22820D03*
X27850Y23320D03*
X26500Y23370D03*
X29500Y18520D03*
X28650Y20920D03*
X26000Y18520D03*
X26500Y20870D03*
X30450Y30770D03*
X30300Y26300D03*
X30450Y32670D03*
Y31720D03*
X29800Y35750D03*
X25000Y33750D03*
X27500D03*
X25000Y35750D03*
X27500D03*
X29800Y38500D03*
X30000Y40750D03*
Y43250D03*
X25000Y38500D03*
X27500D03*
Y40750D03*
Y43250D03*
X30450Y50770D03*
Y51720D03*
Y52670D03*
X30000Y56400D03*
X27500Y54500D03*
X24200Y57600D03*
X26500Y56800D03*
X27500D03*
X28500D03*
X24000Y59800D03*
X27900Y64200D03*
X28500Y65000D03*
X29100Y64200D03*
X27000Y65000D03*
X28300Y67300D03*
X24700D03*
X35500Y14500D03*
X34100Y16500D03*
X32000Y14500D03*
X37250Y15750D03*
X36250D03*
X37050Y22200D03*
X37100Y20100D03*
X32900Y18050D03*
X34950Y20050D03*
X33200Y22200D03*
X31900Y20920D03*
X37250Y18750D03*
Y16750D03*
X36250D03*
Y18750D03*
Y17750D03*
X37250D03*
X37400Y29600D03*
X32500Y30000D03*
X34700Y30100D03*
X36700Y25700D03*
X33500D03*
X34400Y26570D03*
X32700Y28000D03*
X35900Y31300D03*
X37500Y36050D03*
X32000Y35750D03*
X35000Y36050D03*
X37500Y38500D03*
Y40750D03*
Y43250D03*
X32000Y38500D03*
X35000D03*
X32000Y40750D03*
X35000D03*
X32000Y43250D03*
X35000D03*
X37500Y45500D03*
X36875Y51500D03*
X32000Y47250D03*
X35000Y47750D03*
X32000Y48500D03*
Y49750D03*
X37000Y57000D03*
X35000Y58500D03*
X32250Y54250D03*
X33750D03*
X37000Y59800D03*
X33900Y60500D03*
X31300Y67300D03*
X35600D03*
X40200Y14300D03*
X44750Y22500D03*
Y23500D03*
Y21500D03*
X38700Y22700D03*
X40100Y23300D03*
X44600Y19800D03*
X42900Y19400D03*
X41600Y19900D03*
X38250Y21000D03*
X39900Y19900D03*
X43000Y26500D03*
X44600Y29600D03*
X40500Y29520D03*
X44100Y24500D03*
X39250Y24350D03*
X42500Y24800D03*
X41350Y26450D03*
X39100Y28000D03*
X44750Y32050D03*
X39000Y31200D03*
X42550Y31570D03*
X41300Y33500D03*
X40000Y36050D03*
X38050Y33570D03*
X40000Y38500D03*
Y40750D03*
X42500D03*
X40000Y43250D03*
X42500D03*
X40000Y45500D03*
X42500D03*
X44000Y50000D03*
Y48000D03*
X40500Y48625D03*
X41500D03*
X40500Y49625D03*
X41500D03*
X40500Y50625D03*
X41500D03*
X42000Y57000D03*
X38500D03*
X40500Y65000D03*
X43750Y62750D03*
X42250Y63000D03*
X40750D03*
X39250D03*
X43700Y67300D03*
X40100D03*
X46650Y7100D03*
X47650D03*
X46650Y8100D03*
X47650D03*
X46650Y9100D03*
X47650D03*
X51000Y7250D03*
Y9000D03*
X49000Y7250D03*
Y9000D03*
X49625Y14125D03*
X51875Y10750D03*
Y11875D03*
X50750D03*
X49625Y13000D03*
X50750D03*
X46650Y10100D03*
X47650D03*
X44900Y14100D03*
X49000Y10750D03*
X46000Y22500D03*
Y23500D03*
Y21500D03*
X51200Y22100D03*
X48700Y16900D03*
X45700Y19800D03*
X50100D03*
X48700Y21300D03*
X51250Y28450D03*
X50050Y27950D03*
X45500Y25400D03*
X50050Y24950D03*
X51250Y25450D03*
X44900Y27200D03*
X48350Y25350D03*
Y28650D03*
X47750Y32050D03*
X45250Y33250D03*
Y34750D03*
Y36400D03*
X51750Y37650D03*
X48250Y33250D03*
Y34750D03*
X48350Y36400D03*
X50550Y38200D03*
X47500Y44750D03*
X49500D03*
X45000Y38500D03*
X48500Y39150D03*
X50700Y40250D03*
X47600Y40200D03*
X45000Y40750D03*
X47500Y42500D03*
X50700Y42400D03*
X45000Y44000D03*
X47300Y46500D03*
Y47700D03*
X48400Y47100D03*
Y48300D03*
X50600Y48400D03*
X48700Y49400D03*
X46000Y50000D03*
X51200Y55000D03*
X46700Y52400D03*
X45500Y55000D03*
X47500Y65000D03*
X45250Y62750D03*
X46000Y61300D03*
X48500Y67300D03*
X59030Y7250D03*
Y8550D03*
X53000Y9750D03*
Y10750D03*
X58100Y14500D03*
X55800Y14900D03*
X57600Y10000D03*
X56400Y11200D03*
X58500Y12500D03*
X55800Y13300D03*
X56250Y19350D03*
Y18350D03*
X59000Y22600D03*
X54000D03*
X55800Y16650D03*
X52400Y17500D03*
X54400D03*
X57100Y17400D03*
X53100Y20100D03*
X55300D03*
X57400D03*
X57250Y28750D03*
X56250D03*
X52750Y25450D03*
X54250D03*
X58300Y27800D03*
X52750Y28450D03*
X54250D03*
X57950Y34700D03*
X57150Y36950D03*
X58150D03*
X53250Y37550D03*
X57950Y33400D03*
X56500Y40050D03*
X55100Y41600D03*
X55000Y43250D03*
X56000D03*
X57000D03*
X58000D03*
X53250Y40550D03*
X57750Y40050D03*
X55250D03*
X56200Y38100D03*
X59000Y49250D03*
Y48250D03*
X58000Y48750D03*
Y47750D03*
X53000Y51000D03*
X52750Y46000D03*
X54000D03*
X55250D03*
X56500D03*
X55300Y51100D03*
X56400Y50000D03*
Y51100D03*
X55300Y50000D03*
X57000Y52500D03*
Y54000D03*
Y60200D03*
X58500D03*
X56500Y61900D03*
X58000D03*
X52000Y59500D03*
X52200Y67300D03*
X55000D03*
X58100D03*
X60380Y14500D03*
X59380D03*
X66000D03*
X61450Y15400D03*
X64100Y16300D03*
X65500D03*
X59900Y10800D03*
X64000Y10500D03*
X62300Y11600D03*
X64000Y11500D03*
X60950Y13450D03*
X64000Y13750D03*
X62300Y22500D03*
X61700Y18700D03*
X64000D03*
X61500Y20100D03*
X64000D03*
X65500D03*
X64000Y30500D03*
X65300Y25600D03*
X63500Y26000D03*
X62000D03*
X60400D03*
X59300Y27800D03*
X61900Y33400D03*
X64100Y33600D03*
X63000D03*
X65100Y33400D03*
X60800D03*
Y34500D03*
X65350Y35500D03*
X59300Y36900D03*
X60850Y37750D03*
Y36650D03*
X59500Y42700D03*
Y41600D03*
X62500Y44750D03*
X60550Y41000D03*
X63050Y41500D03*
X60750Y42750D03*
X64500Y44250D03*
X65450Y39500D03*
X63700Y51600D03*
X60000Y48250D03*
Y49250D03*
X60500Y53000D03*
Y54300D03*
X61250Y58000D03*
X59750D03*
X60500Y57000D03*
X61250Y56000D03*
X59750D03*
X64800Y60200D03*
X63700D03*
X60000D03*
X61500D03*
X59500Y61900D03*
Y65500D03*
X72000Y14500D03*
X67600Y23600D03*
X72100Y22500D03*
Y18700D03*
X70000Y30000D03*
X72100Y24300D03*
X73100Y28000D03*
X67300Y33000D03*
X71000Y36250D03*
X71100Y31700D03*
X71000Y33800D03*
X68400Y37500D03*
Y36300D03*
X67900Y39300D03*
Y40500D03*
X68000Y43500D03*
X71500Y44400D03*
X72500Y38900D03*
X71300D03*
X73000Y42800D03*
Y43900D03*
Y41700D03*
X66500Y49700D03*
X67500Y51000D03*
X66300D03*
X73250Y51250D03*
Y50250D03*
Y49250D03*
X72000Y55500D03*
Y57500D03*
X67000Y53100D03*
Y55500D03*
Y54300D03*
X73250Y52250D03*
Y53250D03*
X73000Y61400D03*
X71500D03*
X70500D03*
X67700D03*
X69500D03*
X72000Y59700D03*
X73500Y16500D03*
X78500Y17900D03*
X73900Y21600D03*
X76400Y17700D03*
X79900Y25400D03*
X75750Y27250D03*
X77000D03*
X78250Y25750D03*
X77000D03*
X75750D03*
X74500Y27250D03*
Y25750D03*
X78250Y27250D03*
X77200Y34300D03*
X76250Y31500D03*
X77250D03*
X78250D03*
X75250D03*
X74250D03*
X78250Y32500D03*
X77250D03*
X76250D03*
X75250D03*
X74250D03*
X74100Y43900D03*
Y41700D03*
Y42800D03*
X75500Y50500D03*
Y48700D03*
X79500Y51500D03*
Y50000D03*
Y48500D03*
X74000Y55500D03*
Y57500D03*
X79500Y56000D03*
Y54500D03*
X77600Y53000D03*
X75500D03*
X79500D03*
X77600Y58400D03*
X76400D03*
X79000Y60500D03*
X75000Y61400D03*
X80500Y63500D03*
X74000Y61400D03*
Y59700D03*
X77600Y59600D03*
X76400D03*
X78200Y67000D03*
X85300Y14700D03*
X80700Y14300D03*
Y16600D03*
X82500Y16500D03*
X83500D03*
X80700Y17900D03*
X86000Y16800D03*
X86100Y30700D03*
X85200Y25400D03*
X84750Y32500D03*
X85750D03*
Y33500D03*
X84750D03*
X85000Y37000D03*
X86000D03*
X85000Y36000D03*
X86000D03*
X87500Y38500D03*
Y64500D03*
X83500Y67000D03*
X92000Y14300D03*
X88500Y14700D03*
X91000Y22100D03*
X88500Y19300D03*
X91000Y25400D03*
X89500D03*
X90700Y31500D03*
X90000Y36000D03*
X91800Y32900D03*
X88500Y32700D03*
X93000Y41500D03*
X90000Y42500D03*
X93000Y38000D03*
X92500Y50600D03*
X90000Y51500D03*
X92500Y52400D03*
X90000Y60500D03*
X93000Y61500D03*
Y65000D03*
X90000Y67000D03*
X95400Y14400D03*
X95500Y19000D03*
Y29000D03*
X95000Y26200D03*
X95600Y32500D03*
X95500Y36000D03*
Y41500D03*
Y49200D03*
Y53800D03*
Y61500D03*
Y67000D03*
G54D11*
X7500Y9350D03*
Y63250D03*
G36*
X13446Y27773D02*
X13519Y27555D01*
X13520Y27553D01*
X13520Y27550D01*
X13521Y27547D01*
X13530Y27417D01*
X13516Y27287D01*
X13480Y27161D01*
X13423Y27044D01*
X13346Y26938D01*
X13252Y26847D01*
X13144Y26774D01*
X13024Y26721D01*
X12897Y26689D01*
X12767Y26680D01*
X12637Y26694D01*
X12511Y26730D01*
X12394Y26787D01*
X12288Y26864D01*
X12197Y26958D01*
X12124Y27066D01*
X12071Y27186D01*
X12039Y27313D01*
X12030Y27443D01*
X12044Y27573D01*
X12080Y27699D01*
X12137Y27816D01*
X12214Y27922D01*
X12308Y28013D01*
X12416Y28086D01*
X12536Y28139D01*
X12663Y28171D01*
X12793Y28180D01*
X12923Y28166D01*
X13049Y28130D01*
X13166Y28073D01*
X13272Y27996D01*
X13363Y27902D01*
X13436Y27794D01*
X13443Y27780D01*
X13444Y27778D01*
X13445Y27775D01*
X13446Y27773D01*
G37*
G36*
Y47773D02*
X13519Y47555D01*
X13520Y47553D01*
X13520Y47550D01*
X13521Y47547D01*
X13530Y47417D01*
X13516Y47287D01*
X13480Y47161D01*
X13423Y47044D01*
X13346Y46938D01*
X13252Y46847D01*
X13144Y46774D01*
X13024Y46721D01*
X12897Y46689D01*
X12767Y46680D01*
X12637Y46694D01*
X12511Y46730D01*
X12394Y46787D01*
X12288Y46864D01*
X12197Y46958D01*
X12124Y47066D01*
X12071Y47186D01*
X12039Y47313D01*
X12030Y47443D01*
X12044Y47573D01*
X12080Y47699D01*
X12137Y47816D01*
X12214Y47922D01*
X12308Y48013D01*
X12416Y48086D01*
X12536Y48139D01*
X12663Y48171D01*
X12793Y48180D01*
X12923Y48166D01*
X13049Y48130D01*
X13166Y48073D01*
X13272Y47996D01*
X13363Y47902D01*
X13436Y47794D01*
X13443Y47780D01*
X13444Y47778D01*
X13445Y47775D01*
X13446Y47773D01*
G37*
G54D12*
X20500Y28500D02*
X22400D01*
X20500Y48500D02*
X22400D01*
X27600Y28500D02*
X29500D01*
X27600Y48500D02*
X29500D01*
G54D13*
X6500Y4250D03*
X7500D03*
X8500D03*
X23120Y12500D03*
X24120D03*
X25120D03*
X36500Y4250D03*
X37500D03*
X38500D03*
X69000Y12500D03*
X70000D03*
X71000D03*
X92500D03*
X93500D03*
X94500D03*
G36*
X13614Y27587D02*
X13541Y27805D01*
X13540Y27807D01*
X13540Y27810D01*
X13539Y27813D01*
X13530Y27943D01*
X13544Y28073D01*
X13580Y28199D01*
X13637Y28316D01*
X13714Y28422D01*
X13808Y28513D01*
X13916Y28586D01*
X14036Y28639D01*
X14163Y28671D01*
X14293Y28680D01*
X14423Y28666D01*
X14549Y28630D01*
X14666Y28573D01*
X14772Y28496D01*
X14863Y28402D01*
X14936Y28294D01*
X14989Y28174D01*
X15021Y28047D01*
X15030Y27917D01*
X15016Y27787D01*
X14980Y27661D01*
X14923Y27544D01*
X14846Y27438D01*
X14752Y27347D01*
X14644Y27274D01*
X14524Y27221D01*
X14397Y27189D01*
X14267Y27180D01*
X14137Y27194D01*
X14011Y27230D01*
X13894Y27287D01*
X13788Y27364D01*
X13697Y27458D01*
X13624Y27566D01*
X13617Y27580D01*
X13616Y27582D01*
X13615Y27585D01*
X13614Y27587D01*
G37*
G36*
Y47587D02*
X13541Y47805D01*
X13540Y47807D01*
X13540Y47810D01*
X13539Y47813D01*
X13530Y47943D01*
X13544Y48073D01*
X13580Y48199D01*
X13637Y48316D01*
X13714Y48422D01*
X13808Y48513D01*
X13916Y48586D01*
X14036Y48639D01*
X14163Y48671D01*
X14293Y48680D01*
X14423Y48666D01*
X14549Y48630D01*
X14666Y48573D01*
X14772Y48496D01*
X14863Y48402D01*
X14936Y48294D01*
X14989Y48174D01*
X15021Y48047D01*
X15030Y47917D01*
X15016Y47787D01*
X14980Y47661D01*
X14923Y47544D01*
X14846Y47438D01*
X14752Y47347D01*
X14644Y47274D01*
X14524Y47221D01*
X14397Y47189D01*
X14267Y47180D01*
X14137Y47194D01*
X14011Y47230D01*
X13894Y47287D01*
X13788Y47364D01*
X13697Y47458D01*
X13624Y47566D01*
X13617Y47580D01*
X13616Y47582D01*
X13615Y47585D01*
X13614Y47587D01*
G37*
G54D14*
X5230Y34000D03*
X7770D03*
X5230Y54000D03*
X7770D03*
X38500Y50000D03*
X43750Y55750D03*
X51250Y15500D03*
X49500Y18000D03*
X45950Y28550D03*
X58700Y25700D03*
X61500Y46500D03*
X64500D03*
X69000Y53500D03*
X80500Y39000D03*
X94700Y20500D03*
G54D15*
X9550Y34000D02*
X9650D01*
G54D16*
X9200Y34400D02*
X10000D01*
X9200Y33600D02*
X10000D01*
G54D15*
X11350Y34000D02*
X11450D01*
G54D16*
X11000Y34400D02*
X11800D01*
X11000Y33600D02*
X11800D01*
G54D15*
X9550Y54000D02*
X9650D01*
G54D16*
X9200Y54400D02*
X10000D01*
X9200Y53600D02*
X10000D01*
G54D15*
X11350Y54000D02*
X11450D01*
G54D16*
X11000Y54400D02*
X11800D01*
X11000Y53600D02*
X11800D01*
G54D15*
X53550Y56500D02*
X53650D01*
G54D16*
X53200Y56900D02*
X54000D01*
X53200Y56100D02*
X54000D01*
G54D15*
X55350Y56500D02*
X55450D01*
G54D16*
X55000Y56900D02*
X55800D01*
X55000Y56100D02*
X55800D01*
G54D15*
X91050Y20500D02*
X91150D01*
G54D16*
X90700Y20900D02*
X91500D01*
X90700Y20100D02*
X91500D01*
G54D15*
X92850Y20500D02*
X92950D01*
G54D16*
X92500Y20900D02*
X93300D01*
X92500Y20100D02*
X93300D01*
G54D15*
X18095Y55800D02*
Y57450D01*
X19365Y55800D02*
Y57450D01*
X20635Y55800D02*
Y57450D01*
X21905Y55800D02*
Y57450D01*
Y61550D02*
Y63200D01*
X20635Y61550D02*
Y63200D01*
X19365Y61550D02*
Y63200D01*
X18095Y61550D02*
Y63200D01*
X31095Y55800D02*
Y57450D01*
X32365Y55800D02*
Y57450D01*
X33635Y55800D02*
Y57450D01*
X34905Y55800D02*
Y57450D01*
Y61550D02*
Y63200D01*
X33635Y61550D02*
Y63200D01*
X32365Y61550D02*
Y63200D01*
X31095Y61550D02*
Y63200D01*
X68295Y19800D02*
Y21450D01*
X69565Y19800D02*
Y21450D01*
X70835Y19800D02*
Y21450D01*
X72105Y19800D02*
Y21450D01*
Y25550D02*
Y27200D01*
X70835Y25550D02*
Y27200D01*
X69565Y25550D02*
Y27200D01*
X68295Y25550D02*
Y27200D01*
X74595Y22800D02*
Y24450D01*
X75865Y22800D02*
Y24450D01*
X77135Y22800D02*
Y24450D01*
X78405Y22800D02*
Y24450D01*
Y28550D02*
Y30200D01*
X77135Y28550D02*
Y30200D01*
X75865Y28550D02*
Y30200D01*
X74595Y28550D02*
Y30200D01*
G54D17*
X46000Y16600D02*
X46400D01*
G54D16*
X45500Y17150D02*
X46900D01*
X45500Y16050D02*
X46900D01*
G54D17*
X46000Y18600D02*
X46400D01*
G54D16*
X45500Y19150D02*
X46900D01*
X45500Y18050D02*
X46900D01*
G54D18*
X53000Y33000D03*
G54D19*
X5000Y73500D03*
X92000Y5000D03*
Y73500D03*
G54D20*
X49900Y57250D02*
Y59750D01*
X47100Y57250D02*
Y59750D01*
G54D21*
X13925Y32500D02*
X13975D01*
X16025D02*
X16075D01*
X13925Y52500D02*
X13975D01*
X16025D02*
X16075D01*
G54D22*
X25400Y22680D03*
X24400D03*
X25400Y21580D03*
X24400D03*
X25400Y42680D03*
X24400D03*
X25400Y41580D03*
X24400D03*
X43900Y28550D03*
Y27550D03*
X50050Y27000D03*
Y26000D03*
X48350Y27700D03*
Y26700D03*
X51250Y27500D03*
Y26500D03*
X47300Y36400D03*
X46300D03*
X45800Y32050D03*
X46800D03*
X46300Y34750D03*
X47300D03*
X46300Y33250D03*
X47300D03*
X49550Y39150D03*
X50550D03*
X56250Y27700D03*
X57250D03*
X58300Y28900D03*
X52750Y26500D03*
Y27500D03*
X54250Y26500D03*
Y27500D03*
X58350Y38000D03*
Y39000D03*
X53250Y39500D03*
Y38500D03*
X51750Y39550D03*
Y38550D03*
X57150Y39000D03*
Y38000D03*
X55250D03*
Y39000D03*
X57500Y46500D03*
Y45500D03*
X59325Y18125D03*
Y19125D03*
X60425Y18125D03*
Y19125D03*
X59300Y28900D03*
X63300Y35500D03*
X64300D03*
X58900Y33400D03*
X59900D03*
Y34700D03*
X58900D03*
X62100Y35500D03*
X61100D03*
X60350Y38950D03*
Y39950D03*
X68400Y34000D03*
Y35000D03*
X69500Y32800D03*
Y31800D03*
X72000Y41900D03*
X71000D03*
Y43200D03*
X72000D03*
X69050Y40500D03*
X70050D03*
X69050Y39300D03*
X70050D03*
X88500Y24500D03*
X89500D03*
X88500Y31500D03*
X89500D03*
G54D23*
X50250Y29350D02*
Y29800D01*
X50750Y29350D02*
Y29800D01*
X51250Y29350D02*
Y29800D01*
Y36200D02*
Y36650D01*
X50750Y36200D02*
Y36650D01*
X50250Y36200D02*
Y36650D01*
X51750Y29350D02*
Y29800D01*
X52250Y29350D02*
Y29800D01*
X52750Y29350D02*
Y29800D01*
X53250Y29350D02*
Y29800D01*
X53750Y29350D02*
Y29800D01*
X54250Y29350D02*
Y29800D01*
X54750Y29350D02*
Y29800D01*
X55250Y29350D02*
Y29800D01*
X55750Y29350D02*
Y29800D01*
Y36200D02*
Y36650D01*
X55250Y36200D02*
Y36650D01*
X54750Y36200D02*
Y36650D01*
X54250Y36200D02*
Y36650D01*
X53750Y36200D02*
Y36650D01*
X53250Y36200D02*
Y36650D01*
X52750Y36200D02*
Y36650D01*
X52250Y36200D02*
Y36650D01*
X51750Y36200D02*
Y36650D01*
G54D15*
X15850Y16000D02*
X15950D01*
G54D16*
X15500Y16400D02*
X16300D01*
X15500Y15600D02*
X16300D01*
G54D15*
X14050Y16000D02*
X14150D01*
G54D16*
X13700Y16400D02*
X14500D01*
X13700Y15600D02*
X14500D01*
G54D15*
X15850Y36000D02*
X15950D01*
G54D16*
X15500Y36400D02*
X16300D01*
X15500Y35600D02*
X16300D01*
G54D15*
X14050Y36000D02*
X14150D01*
G54D16*
X13700Y36400D02*
X14500D01*
X13700Y35600D02*
X14500D01*
G54D15*
X22350Y65000D02*
X22450D01*
G54D16*
X22000Y65400D02*
X22800D01*
X22000Y64600D02*
X22800D01*
G54D15*
X20550Y65000D02*
X20650D01*
G54D16*
X20200Y65400D02*
X21000D01*
X20200Y64600D02*
X21000D01*
G54D15*
X25850Y65000D02*
X25950D01*
G54D16*
X25500Y65400D02*
X26300D01*
X25500Y64600D02*
X26300D01*
G54D15*
X24050Y65000D02*
X24150D01*
G54D16*
X23700Y65400D02*
X24500D01*
X23700Y64600D02*
X24500D01*
G54D15*
X37050Y65000D02*
X37150D01*
G54D16*
X36700Y65400D02*
X37500D01*
X36700Y64600D02*
X37500D01*
G54D15*
X35350Y65000D02*
X35450D01*
G54D16*
X35000Y65400D02*
X35800D01*
X35000Y64600D02*
X35800D01*
G54D15*
X33550Y65000D02*
X33650D01*
G54D16*
X33200Y65400D02*
X34000D01*
X33200Y64600D02*
X34000D01*
G54D15*
X38850Y65000D02*
X38950D01*
G54D16*
X38500Y65400D02*
X39300D01*
X38500Y64600D02*
X39300D01*
G54D15*
X23950Y62900D02*
X24050D01*
G54D16*
X23600Y63300D02*
X24400D01*
X23600Y62500D02*
X24400D01*
G54D15*
X23950Y61100D02*
X24050D01*
G54D16*
X23600Y61500D02*
X24400D01*
X23600Y60700D02*
X24400D01*
G54D15*
X36950Y62900D02*
X37050D01*
G54D16*
X36600Y63300D02*
X37400D01*
X36600Y62500D02*
X37400D01*
G54D15*
X36950Y61100D02*
X37050D01*
G54D16*
X36600Y61500D02*
X37400D01*
X36600Y60700D02*
X37400D01*
G54D15*
X45450Y51600D02*
X45550D01*
G54D16*
X45100Y52000D02*
X45900D01*
X45100Y51200D02*
X45900D01*
G54D15*
X45450Y53400D02*
X45550D01*
G54D16*
X45100Y53800D02*
X45900D01*
X45100Y53000D02*
X45900D01*
G54D15*
X54350Y16400D02*
X54450D01*
G54D16*
X54000Y16800D02*
X54800D01*
X54000Y16000D02*
X54800D01*
G54D15*
X54350Y14600D02*
X54450D01*
G54D16*
X54000Y15000D02*
X54800D01*
X54000Y14200D02*
X54800D01*
G54D15*
X55450Y58600D02*
X55550D01*
G54D16*
X55100Y59000D02*
X55900D01*
X55100Y58200D02*
X55900D01*
G54D15*
X55450Y60400D02*
X55550D01*
G54D16*
X55100Y60800D02*
X55900D01*
X55100Y60000D02*
X55900D01*
G54D15*
X69350Y16400D02*
X69450D01*
G54D16*
X69000Y16800D02*
X69800D01*
X69000Y16000D02*
X69800D01*
G54D15*
X70950Y16400D02*
X71050D01*
G54D16*
X70600Y16800D02*
X71400D01*
X70600Y16000D02*
X71400D01*
G54D15*
X69350Y18200D02*
X69450D01*
G54D16*
X69000Y18600D02*
X69800D01*
X69000Y17800D02*
X69800D01*
G54D15*
X70950Y18200D02*
X71050D01*
G54D16*
X70600Y18600D02*
X71400D01*
X70600Y17800D02*
X71400D01*
G54D15*
X74950Y15100D02*
X75050D01*
G54D16*
X74600Y15500D02*
X75400D01*
X74600Y14700D02*
X75400D01*
G54D15*
X74950Y16900D02*
X75050D01*
G54D16*
X74600Y17300D02*
X75400D01*
X74600Y16500D02*
X75400D01*
G54D15*
X92950Y23100D02*
X93050D01*
G54D16*
X92600Y23500D02*
X93400D01*
X92600Y22700D02*
X93400D01*
G54D15*
X92950Y24900D02*
X93050D01*
G54D16*
X92600Y25300D02*
X93400D01*
X92600Y24500D02*
X93400D01*
G54D23*
X54925Y18540D02*
X55125D01*
X54925Y19090D02*
X55125D01*
X53675D02*
X53875D01*
X53675Y18540D02*
X53875D01*
G54D24*
X61450Y61950D02*
X65550D01*
X61450Y66650D02*
X65550D01*
G54D25*
X13500Y58550D02*
X15500D01*
G54D16*
X12700Y59400D02*
X16300D01*
X12700Y57700D02*
X16300D01*
G54D25*
X13500Y62450D02*
X15500D01*
G54D16*
X12700Y63300D02*
X16300D01*
X12700Y61600D02*
X16300D01*
G54D25*
X26500Y58550D02*
X28500D01*
G54D16*
X25700Y59400D02*
X29300D01*
X25700Y57700D02*
X29300D01*
G54D25*
X26500Y62450D02*
X28500D01*
G54D16*
X25700Y63300D02*
X29300D01*
X25700Y61600D02*
X29300D01*
G54D26*
X10780Y17360D03*
Y30500D03*
Y37360D03*
Y50500D03*
G54D23*
X49350Y30250D02*
X49800D01*
X49350Y35750D02*
X49800D01*
X49350Y35250D02*
X49800D01*
X49350Y34750D02*
X49800D01*
X49350Y34250D02*
X49800D01*
X49350Y33750D02*
X49800D01*
X49350Y33250D02*
X49800D01*
X49350Y32750D02*
X49800D01*
X49350Y32250D02*
X49800D01*
X49350Y31750D02*
X49800D01*
X49350Y31250D02*
X49800D01*
X49350Y30750D02*
X49800D01*
X56200Y30250D02*
X56650D01*
X56200Y30750D02*
X56650D01*
X56200Y31250D02*
X56650D01*
X56200Y31750D02*
X56650D01*
X56200Y32250D02*
X56650D01*
X56200Y32750D02*
X56650D01*
X56200Y33250D02*
X56650D01*
X56200Y33750D02*
X56650D01*
X56200Y34250D02*
X56650D01*
X56200Y34750D02*
X56650D01*
X56200Y35250D02*
X56650D01*
X56200Y35750D02*
X56650D01*
G54D27*
X41750Y15900D02*
Y16600D01*
G54D16*
X41100Y15300D02*
Y17200D01*
X42400Y15300D02*
Y17200D01*
G54D27*
X38750Y15900D02*
Y16600D01*
G54D16*
X38100Y15300D02*
Y17200D01*
X39400Y15300D02*
Y17200D01*
G54D27*
X64500Y48650D02*
Y49350D01*
G54D16*
X63850Y48050D02*
Y49950D01*
X65150Y48050D02*
Y49950D01*
G54D27*
X61500Y48650D02*
Y49350D01*
G54D16*
X60850Y48050D02*
Y49950D01*
X62150Y48050D02*
Y49950D01*
G54D17*
X58200Y41400D02*
Y41800D01*
G54D16*
X57650Y40900D02*
Y42300D01*
X58750Y40900D02*
Y42300D01*
G54D17*
X56200Y41400D02*
Y41800D01*
G54D16*
X55650Y40900D02*
Y42300D01*
X56750Y40900D02*
Y42300D01*
G54D17*
X71700Y40050D02*
Y40450D01*
G54D16*
X71150Y39550D02*
Y40950D01*
X72250Y39550D02*
Y40950D01*
G54D17*
X73700Y40050D02*
Y40450D01*
G54D16*
X73150Y39550D02*
Y40950D01*
X74250Y39550D02*
Y40950D01*
G54D15*
X16050Y54500D02*
X16150D01*
G54D16*
X15700Y54900D02*
X16500D01*
X15700Y54100D02*
X16500D01*
G54D15*
X17850Y54500D02*
X17950D01*
G54D16*
X17500Y54900D02*
X18300D01*
X17500Y54100D02*
X18300D01*
G54D15*
X29050Y54500D02*
X29150D01*
G54D16*
X28700Y54900D02*
X29500D01*
X28700Y54100D02*
X29500D01*
G54D15*
X30850Y54500D02*
X30950D01*
G54D16*
X30500Y54900D02*
X31300D01*
X30500Y54100D02*
X31300D01*
G54D15*
X43350Y23300D02*
X43450D01*
G54D16*
X43000Y23700D02*
X43800D01*
X43000Y22900D02*
X43800D01*
G54D15*
X41550Y23300D02*
X41650D01*
G54D16*
X41200Y23700D02*
X42000D01*
X41200Y22900D02*
X42000D01*
G54D15*
X63350Y53000D02*
X63450D01*
G54D16*
X63000Y53400D02*
X63800D01*
X63000Y52600D02*
X63800D01*
G54D15*
X61550Y53000D02*
X61650D01*
G54D16*
X61200Y53400D02*
X62000D01*
X61200Y52600D02*
X62000D01*
G54D15*
X72850Y32800D02*
X72950D01*
G54D16*
X72500Y33200D02*
X73300D01*
X72500Y32400D02*
X73300D01*
G54D15*
X71050Y32800D02*
X71150D01*
G54D16*
X70700Y33200D02*
X71500D01*
X70700Y32400D02*
X71500D01*
G54D15*
X70350Y51000D02*
X70450D01*
G54D16*
X70000Y51400D02*
X70800D01*
X70000Y50600D02*
X70800D01*
G54D15*
X68550Y51000D02*
X68650D01*
G54D16*
X68200Y51400D02*
X69000D01*
X68200Y50600D02*
X69000D01*
G54D27*
X80000Y36150D02*
Y36850D01*
G54D16*
X79350Y35550D02*
Y37450D01*
X80650Y35550D02*
Y37450D01*
G54D27*
X83000Y36150D02*
Y36850D01*
G54D16*
X82350Y35550D02*
Y37450D01*
X83650Y35550D02*
Y37450D01*
G54D15*
X71950Y37200D02*
Y37900D01*
X71000Y37200D02*
Y37900D01*
X70050Y37200D02*
Y37900D01*
Y34700D02*
Y35400D01*
X71950Y34700D02*
Y35400D01*
X88550Y26400D02*
Y27100D01*
X89500Y26400D02*
Y27100D01*
X90450Y26400D02*
Y27100D01*
Y28900D02*
Y29600D01*
X88550Y28900D02*
Y29600D01*
G54D16*
X45409Y91D02*
X64891D01*
X64981Y181D02*
X45319D01*
X45228Y272D02*
X65072D01*
X65162Y362D02*
X45138D01*
X45050Y453D02*
X65250D01*
Y544D02*
X45050D01*
Y634D02*
X65250D01*
Y725D02*
X45050D01*
Y815D02*
X65250D01*
Y906D02*
X45050D01*
Y997D02*
X65250D01*
Y1087D02*
X45050D01*
Y1178D02*
X65250D01*
Y1268D02*
X45050D01*
Y1359D02*
X65250D01*
Y1450D02*
X45050D01*
Y1540D02*
X65250D01*
Y1631D02*
X45050D01*
Y450D02*
Y5700D01*
X65250D01*
Y450D01*
X64850Y50D01*
X45450D01*
X45050Y450D01*
Y1721D02*
X65250D01*
Y1812D02*
X45050D01*
Y1903D02*
X65250D01*
Y1993D02*
X45050D01*
Y2084D02*
X65250D01*
Y2174D02*
X45050D01*
Y2265D02*
X65250D01*
Y2356D02*
X45050D01*
Y2446D02*
X65250D01*
Y2537D02*
X45050D01*
Y2627D02*
X65250D01*
Y2718D02*
X45050D01*
Y2809D02*
X65250D01*
Y2899D02*
X45050D01*
Y2990D02*
X65250D01*
Y3080D02*
X45050D01*
Y3171D02*
X65250D01*
Y3262D02*
X45050D01*
Y3352D02*
X65250D01*
Y3443D02*
X45050D01*
Y3533D02*
X65250D01*
Y3624D02*
X45050D01*
Y3715D02*
X65250D01*
Y3805D02*
X45050D01*
Y3896D02*
X65250D01*
Y3986D02*
X45050D01*
Y4077D02*
X65250D01*
Y4168D02*
X45050D01*
Y4258D02*
X65250D01*
Y4349D02*
X45050D01*
Y4439D02*
X65250D01*
Y4530D02*
X45050D01*
Y4621D02*
X65250D01*
Y4711D02*
X45050D01*
Y4802D02*
X65250D01*
Y4892D02*
X45050D01*
Y4983D02*
X65250D01*
Y5074D02*
X45050D01*
Y5164D02*
X65250D01*
Y5255D02*
X45050D01*
Y5345D02*
X65250D01*
Y5436D02*
X45050D01*
Y5527D02*
X65250D01*
Y5617D02*
X45050D01*
G54D28*
X19450Y19680D02*
X19926D01*
X19450Y20180D02*
X19926D01*
X19450Y21180D02*
X19926D01*
X19450Y21680D02*
X19926D01*
X18575D02*
X19050D01*
X18575Y21180D02*
X19050D01*
X18575Y20180D02*
X19050D01*
X18575Y19680D02*
X19050D01*
X19450Y39680D02*
X19926D01*
X19450Y40180D02*
X19926D01*
X19450Y41180D02*
X19926D01*
X19450Y41680D02*
X19926D01*
X18575D02*
X19050D01*
X18575Y41180D02*
X19050D01*
X18575Y40180D02*
X19050D01*
X18575Y39680D02*
X19050D01*
G54D29*
X12780Y22930D03*
X14280Y21930D03*
X12780Y24930D03*
X14280Y23930D03*
Y25930D03*
X12780Y44930D03*
Y42930D03*
X14280Y41930D03*
Y43930D03*
Y45930D03*
G54D30*
X51200Y34800D03*
Y33000D03*
Y31200D03*
X54800Y34800D03*
X53000D03*
X54800Y33000D03*
X53000D03*
X54800Y31200D03*
X53000D03*
G54D31*
X68250Y46000D02*
X68750D01*
X68250Y49000D02*
X68750D01*
G54D21*
X78000Y43300D02*
Y43400D01*
Y41600D02*
Y41700D01*
G54D15*
X43950Y16900D02*
X44050D01*
G54D16*
X43600Y17300D02*
X44400D01*
X43600Y16500D02*
X44400D01*
G54D15*
X43950Y18700D02*
X44050D01*
G54D16*
X43600Y19100D02*
X44400D01*
X43600Y18300D02*
X44400D01*
G54D15*
X60850Y27800D02*
X60950D01*
G54D16*
X60500Y28200D02*
X61300D01*
X60500Y27400D02*
X61300D01*
G54D15*
X60850Y29600D02*
X60950D01*
G54D16*
X60500Y30000D02*
X61300D01*
X60500Y29200D02*
X61300D01*
G54D15*
X66450Y46600D02*
X66550D01*
G54D16*
X66100Y47000D02*
X66900D01*
X66100Y46200D02*
X66900D01*
G54D15*
X66450Y48400D02*
X66550D01*
G54D16*
X66100Y48800D02*
X66900D01*
X66100Y48000D02*
X66900D01*
G54D15*
X75450Y45600D02*
X75550D01*
G54D16*
X75100Y46000D02*
X75900D01*
X75100Y45200D02*
X75900D01*
G54D15*
X75450Y47400D02*
X75550D01*
G54D16*
X75100Y47800D02*
X75900D01*
X75100Y47000D02*
X75900D01*
G54D15*
X57050Y58905D02*
X58350D01*
X57050Y57635D02*
X58350D01*
X57050Y56365D02*
X58350D01*
X57050Y55095D02*
X58350D01*
X62650D02*
X63950D01*
X62650Y56365D02*
X63950D01*
X62650Y57635D02*
X63950D01*
X62650Y58905D02*
X63950D01*
G54D32*
X0Y68500D02*
Y78500D01*
X97000D01*
Y68500D01*
X0D01*
Y4500D01*
X6000D01*
G02X7000Y3500I0J-1000D01*
G02X6000Y2500I-1000J0D01*
G01X0D01*
Y0D01*
X41350D01*
Y2500D01*
X39000D01*
G02X38000Y3500I0J1000D01*
G02X39000Y4500I1000J0D01*
G01X41350D01*
Y10925D01*
G02X43175Y12750I1825J0D01*
G02X45000Y10925I0J-1825D01*
G01Y500D01*
X45500Y0D01*
X55700D01*
X56200Y500D01*
Y7450D01*
G02X57150Y8400I950J0D01*
G02X58100Y7450I0J-950D01*
G01Y500D01*
X58600Y0D01*
X64800D01*
X65300Y500D01*
Y11750D01*
G02X66300Y12750I1000J0D01*
G01X68500D01*
G02X69500Y11750I0J-1000D01*
G02X68500Y10750I-1000J0D01*
G01X67300D01*
Y0D01*
X97000D01*
Y10750D01*
X95000D01*
G02X94000Y11750I0J1000D01*
G02X95000Y12750I1000J0D01*
G01X97000D01*
Y68500D01*
X16269Y2537D02*
X0D01*
Y2718D02*
X16623D01*
X16799Y2899D02*
X0D01*
Y3080D02*
X16908D01*
X16971Y3262D02*
X0D01*
Y3443D02*
X16998D01*
X17000Y3624D02*
X0D01*
Y3805D02*
X17000D01*
Y3986D02*
X0D01*
Y4168D02*
X17000D01*
Y4349D02*
X0D01*
Y4500D02*
Y2500D01*
X16000D01*
G03X17000Y3500I0J1000D01*
G01Y10750D01*
X24250D01*
Y12750D01*
X16000D01*
G03X15000Y11750I0J-1000D01*
G01Y4500D01*
X0D01*
X12750Y2500D02*
X16000D01*
G03X17000Y3500I0J1000D01*
G01Y10750D01*
X22620D01*
G03X23620Y11750I0J1000D01*
G03X22620Y12750I-1000J0D01*
G01X16000D01*
G03X15000Y11750I0J-1000D01*
G01Y4500D01*
X9000D01*
G03X8000Y3500I0J-1000D01*
G03X9000Y2500I1000J0D01*
G01X12750D01*
X15000Y4530D02*
X17000D01*
Y4711D02*
X15000D01*
Y4892D02*
X17000D01*
Y5074D02*
X15000D01*
Y5255D02*
X17000D01*
Y5436D02*
X15000D01*
Y5617D02*
X17000D01*
Y5798D02*
X15000D01*
Y5980D02*
X17000D01*
Y6161D02*
X15000D01*
Y6342D02*
X17000D01*
Y6523D02*
X15000D01*
Y6704D02*
X17000D01*
Y6886D02*
X15000D01*
Y7067D02*
X17000D01*
Y7248D02*
X15000D01*
Y7429D02*
X17000D01*
Y7610D02*
X15000D01*
Y7792D02*
X17000D01*
Y7973D02*
X15000D01*
Y8154D02*
X17000D01*
Y8335D02*
X15000D01*
Y8516D02*
X17000D01*
Y8698D02*
X15000D01*
Y8879D02*
X17000D01*
Y9060D02*
X15000D01*
Y9241D02*
X17000D01*
Y9422D02*
X15000D01*
Y9604D02*
X17000D01*
Y9785D02*
X15000D01*
Y9966D02*
X17000D01*
Y10147D02*
X15000D01*
Y10328D02*
X17000D01*
Y10510D02*
X15000D01*
Y10691D02*
X17000D01*
X24250Y10872D02*
X15000D01*
Y11053D02*
X24250D01*
Y11234D02*
X15000D01*
Y11416D02*
X24250D01*
Y11597D02*
X15000D01*
Y11778D02*
X24250D01*
Y11959D02*
X15022D01*
X15079Y12140D02*
X24250D01*
Y12322D02*
X15179D01*
X15342Y12503D02*
X24250D01*
Y12684D02*
X15643D01*
X33350Y10872D02*
X24250D01*
Y11053D02*
X33350D01*
Y11234D02*
X24250D01*
Y11416D02*
X33350D01*
Y11597D02*
X24250D01*
Y11778D02*
X33350D01*
X33328Y11959D02*
X24250D01*
Y12140D02*
X33271D01*
X33171Y12322D02*
X24250D01*
Y12503D02*
X33008D01*
X32707Y12684D02*
X24250D01*
X26625Y10750D02*
X31350D01*
Y3500D01*
G03X32350Y2500I1000J0D01*
G01X37500D01*
Y4500D01*
X33350D01*
Y11750D01*
G03X32350Y12750I-1000J0D01*
G01X24250D01*
Y10750D01*
X26625D01*
X35175Y4500D02*
X33350D01*
Y11750D01*
G03X32350Y12750I-1000J0D01*
G01X25620D01*
G03X24620Y11750I0J-1000D01*
G03X25620Y10750I1000J0D01*
G01X31350D01*
Y3500D01*
G03X32350Y2500I1000J0D01*
G01X36000D01*
G03X37000Y3500I0J1000D01*
G03X36000Y4500I-1000J0D01*
G01X35175D01*
X37500Y2537D02*
X32081D01*
X31727Y2718D02*
X37500D01*
Y2899D02*
X31551D01*
X31442Y3080D02*
X37500D01*
Y3262D02*
X31379D01*
X31352Y3443D02*
X37500D01*
Y3624D02*
X31350D01*
Y3805D02*
X37500D01*
Y3986D02*
X31350D01*
Y4168D02*
X37500D01*
Y4349D02*
X31350D01*
Y4530D02*
X33350D01*
Y4711D02*
X31350D01*
Y4892D02*
X33350D01*
Y5074D02*
X31350D01*
Y5255D02*
X33350D01*
Y5436D02*
X31350D01*
Y5617D02*
X33350D01*
Y5798D02*
X31350D01*
Y5980D02*
X33350D01*
Y6161D02*
X31350D01*
Y6342D02*
X33350D01*
Y6523D02*
X31350D01*
Y6704D02*
X33350D01*
Y6886D02*
X31350D01*
Y7067D02*
X33350D01*
Y7248D02*
X31350D01*
Y7429D02*
X33350D01*
Y7610D02*
X31350D01*
Y7792D02*
X33350D01*
Y7973D02*
X31350D01*
Y8154D02*
X33350D01*
Y8335D02*
X31350D01*
Y8516D02*
X33350D01*
Y8698D02*
X31350D01*
Y8879D02*
X33350D01*
Y9060D02*
X31350D01*
Y9241D02*
X33350D01*
Y9422D02*
X31350D01*
Y9604D02*
X33350D01*
Y9785D02*
X31350D01*
Y9966D02*
X33350D01*
Y10147D02*
X31350D01*
Y10328D02*
X33350D01*
Y10510D02*
X31350D01*
Y10691D02*
X33350D01*
X41350Y181D02*
X45319D01*
X45138Y362D02*
X41350D01*
Y544D02*
X45000D01*
Y725D02*
X41350D01*
Y906D02*
X45000D01*
Y1087D02*
X41350D01*
Y1268D02*
X45000D01*
Y1450D02*
X41350D01*
Y1631D02*
X45000D01*
X37500Y2500D02*
Y4500D01*
X41350D01*
Y10925D01*
G02X43175Y12750I1825J0D01*
G02X45000Y10925I0J-1825D01*
G01Y500D01*
X45500Y0D01*
X41350D01*
Y2500D01*
X37500D01*
X45000Y1812D02*
X41350D01*
Y1993D02*
X45000D01*
Y2174D02*
X41350D01*
Y2356D02*
X45000D01*
Y2537D02*
X37500D01*
Y2718D02*
X45000D01*
Y2899D02*
X37500D01*
Y3080D02*
X45000D01*
Y3262D02*
X37500D01*
Y3443D02*
X45000D01*
Y3624D02*
X37500D01*
Y3805D02*
X45000D01*
Y3986D02*
X37500D01*
Y4168D02*
X45000D01*
Y4349D02*
X37500D01*
X41350Y4530D02*
X45000D01*
Y4711D02*
X41350D01*
Y4892D02*
X45000D01*
Y5074D02*
X41350D01*
Y5255D02*
X45000D01*
Y5436D02*
X41350D01*
Y5617D02*
X45000D01*
Y5798D02*
X41350D01*
Y5980D02*
X45000D01*
Y6161D02*
X41350D01*
Y6342D02*
X45000D01*
Y6523D02*
X41350D01*
Y6704D02*
X45000D01*
Y6886D02*
X41350D01*
Y7067D02*
X45000D01*
Y7248D02*
X41350D01*
Y7429D02*
X45000D01*
Y7610D02*
X41350D01*
Y7792D02*
X45000D01*
Y7973D02*
X41350D01*
Y8154D02*
X45000D01*
Y8335D02*
X41350D01*
Y8516D02*
X45000D01*
Y8698D02*
X41350D01*
Y8879D02*
X45000D01*
Y9060D02*
X41350D01*
Y9241D02*
X45000D01*
Y9422D02*
X41350D01*
Y9604D02*
X45000D01*
Y9785D02*
X41350D01*
Y9966D02*
X45000D01*
Y10147D02*
X41350D01*
Y10328D02*
X45000D01*
Y10510D02*
X41350D01*
Y10691D02*
X45000D01*
Y10872D02*
X41350D01*
X41355Y11053D02*
X44996D01*
X44974Y11234D02*
X41376D01*
X41417Y11416D02*
X44933D01*
X44872Y11597D02*
X41478D01*
X41562Y11778D02*
X44788D01*
X44679Y11959D02*
X41671D01*
X41814Y12140D02*
X44536D01*
X44350Y12322D02*
X42000D01*
X42258Y12503D02*
X44092D01*
X43661Y12684D02*
X42689D01*
X64981Y181D02*
X67300D01*
Y362D02*
X65162D01*
X65300Y544D02*
X67300D01*
Y725D02*
X65300D01*
Y906D02*
X67300D01*
Y1087D02*
X65300D01*
Y1268D02*
X67300D01*
Y1450D02*
X65300D01*
Y1631D02*
X67300D01*
X97000Y12750D02*
Y10750D01*
X67300D01*
Y0D01*
X64800D01*
X65300Y500D01*
Y11750D01*
G02X66300Y12750I1000J0D01*
G01X97000D01*
X67300Y1812D02*
X65300D01*
Y1993D02*
X67300D01*
Y2174D02*
X65300D01*
Y2356D02*
X67300D01*
Y2537D02*
X65300D01*
Y2718D02*
X67300D01*
Y2899D02*
X65300D01*
Y3080D02*
X67300D01*
Y3262D02*
X65300D01*
Y3443D02*
X67300D01*
Y3624D02*
X65300D01*
Y3805D02*
X67300D01*
Y3986D02*
X65300D01*
Y4168D02*
X67300D01*
Y4349D02*
X65300D01*
Y4530D02*
X67300D01*
Y4711D02*
X65300D01*
Y4892D02*
X67300D01*
Y5074D02*
X65300D01*
Y5255D02*
X67300D01*
Y5436D02*
X65300D01*
Y5617D02*
X67300D01*
Y5798D02*
X65300D01*
Y5980D02*
X67300D01*
Y6161D02*
X65300D01*
Y6342D02*
X67300D01*
Y6523D02*
X65300D01*
Y6704D02*
X67300D01*
Y6886D02*
X65300D01*
Y7067D02*
X67300D01*
Y7248D02*
X65300D01*
Y7429D02*
X67300D01*
Y7610D02*
X65300D01*
Y7792D02*
X67300D01*
Y7973D02*
X65300D01*
Y8154D02*
X67300D01*
Y8335D02*
X65300D01*
Y8516D02*
X67300D01*
Y8698D02*
X65300D01*
Y8879D02*
X67300D01*
Y9060D02*
X65300D01*
Y9241D02*
X67300D01*
Y9422D02*
X65300D01*
Y9604D02*
X67300D01*
Y9785D02*
X65300D01*
Y9966D02*
X67300D01*
Y10147D02*
X65300D01*
Y10328D02*
X67300D01*
Y10510D02*
X65300D01*
Y10691D02*
X67300D01*
X97000Y10872D02*
X65300D01*
Y11053D02*
X97000D01*
Y11234D02*
X65300D01*
Y11416D02*
X97000D01*
Y11597D02*
X65300D01*
Y11778D02*
X97000D01*
Y11959D02*
X65322D01*
X65379Y12140D02*
X97000D01*
Y12322D02*
X65479D01*
X65642Y12503D02*
X97000D01*
Y12684D02*
X65943D01*
X90250Y12750D02*
X71500D01*
G03X70500Y11750I0J-1000D01*
G03X71500Y10750I1000J0D01*
G01X92000D01*
G03X93000Y11750I0J1000D01*
G03X92000Y12750I-1000J0D01*
G01X90250D01*
G54D33*
X19551Y20680D02*
X19825D01*
X18675D02*
X18949D01*
X19551Y40680D02*
X19825D01*
X18675D02*
X18949D01*
G54D15*
X51950Y49400D02*
X52050D01*
G54D16*
X51600Y49800D02*
X52400D01*
X51600Y49000D02*
X52400D01*
G54D15*
X51950Y47600D02*
X52050D01*
G54D16*
X51600Y48000D02*
X52400D01*
X51600Y47200D02*
X52400D01*
G54D15*
X64950Y51600D02*
X65050D01*
G54D16*
X64600Y52000D02*
X65400D01*
X64600Y51200D02*
X65400D01*
G54D15*
X64950Y53400D02*
X65050D01*
G54D16*
X64600Y53800D02*
X65400D01*
X64600Y53000D02*
X65400D01*
G54D15*
X66450Y25400D02*
X66550D01*
G54D16*
X66100Y25800D02*
X66900D01*
X66100Y25000D02*
X66900D01*
G54D15*
X66450Y23600D02*
X66550D01*
G54D16*
X66100Y24000D02*
X66900D01*
X66100Y23200D02*
X66900D01*
G54D15*
X67650Y65000D02*
X67750D01*
G54D16*
X67300Y65400D02*
X68100D01*
X67300Y64600D02*
X68100D01*
G54D15*
X67650Y63200D02*
X67750D01*
G54D16*
X67300Y63600D02*
X68100D01*
X67300Y62800D02*
X68100D01*
G54D20*
X39900Y21100D02*
Y21500D01*
X43100Y21100D02*
Y21500D01*
X70100Y57300D02*
Y57700D01*
X66900Y57300D02*
Y57700D01*
G36*
X73350Y46959D02*
X72791Y46400D01*
X70209D01*
X69709Y46900D01*
X67650D01*
Y48100D01*
X69709D01*
X70209Y48600D01*
X72791D01*
X73350Y48041D01*
Y46959D01*
G37*
G54D20*
X77400Y51400D02*
X77800D01*
X77400Y48200D02*
X77800D01*
G36*
X13519Y20304D02*
X13446Y20087D01*
X13445Y20085D01*
X13444Y20082D01*
X13443Y20080D01*
X13436Y20066D01*
X13363Y19958D01*
X13272Y19864D01*
X13166Y19787D01*
X13049Y19730D01*
X12923Y19694D01*
X12793Y19680D01*
X12663Y19689D01*
X12536Y19721D01*
X12416Y19774D01*
X12308Y19847D01*
X12214Y19938D01*
X12137Y20044D01*
X12080Y20161D01*
X12044Y20287D01*
X12030Y20417D01*
X12039Y20547D01*
X12071Y20674D01*
X12124Y20794D01*
X12197Y20902D01*
X12288Y20996D01*
X12394Y21073D01*
X12511Y21130D01*
X12637Y21166D01*
X12767Y21180D01*
X12897Y21171D01*
X13024Y21139D01*
X13144Y21086D01*
X13252Y21013D01*
X13346Y20922D01*
X13423Y20816D01*
X13480Y20699D01*
X13516Y20573D01*
X13530Y20443D01*
X13521Y20313D01*
X13520Y20310D01*
X13520Y20307D01*
X13519Y20304D01*
G37*
G36*
Y40305D02*
X13446Y40087D01*
X13445Y40085D01*
X13444Y40082D01*
X13443Y40080D01*
X13436Y40066D01*
X13363Y39958D01*
X13272Y39864D01*
X13166Y39787D01*
X13049Y39730D01*
X12923Y39694D01*
X12793Y39680D01*
X12663Y39689D01*
X12536Y39721D01*
X12416Y39774D01*
X12308Y39847D01*
X12214Y39938D01*
X12137Y40044D01*
X12080Y40161D01*
X12044Y40287D01*
X12030Y40417D01*
X12039Y40547D01*
X12071Y40674D01*
X12124Y40794D01*
X12197Y40902D01*
X12288Y40996D01*
X12394Y41073D01*
X12511Y41130D01*
X12637Y41166D01*
X12767Y41180D01*
X12897Y41171D01*
X13024Y41139D01*
X13144Y41086D01*
X13252Y41013D01*
X13346Y40922D01*
X13423Y40816D01*
X13480Y40699D01*
X13516Y40573D01*
X13530Y40443D01*
X13521Y40313D01*
X13520Y40310D01*
X13520Y40307D01*
X13519Y40305D01*
G37*
G54D15*
X53550Y52500D02*
X53650D01*
G54D16*
X53200Y52900D02*
X54000D01*
X53200Y52100D02*
X54000D01*
G54D15*
X55350Y52500D02*
X55450D01*
G54D16*
X55000Y52900D02*
X55800D01*
X55000Y52100D02*
X55800D01*
G54D15*
X53550Y54500D02*
X53650D01*
G54D16*
X53200Y54900D02*
X54000D01*
X53200Y54100D02*
X54000D01*
G54D15*
X55350Y54500D02*
X55450D01*
G54D16*
X55000Y54900D02*
X55800D01*
X55000Y54100D02*
X55800D01*
G54D15*
X68550Y55500D02*
X68650D01*
G54D16*
X68200Y55900D02*
X69000D01*
X68200Y55100D02*
X69000D01*
G54D15*
X70350Y55500D02*
X70450D01*
G54D16*
X70000Y55900D02*
X70800D01*
X70000Y55100D02*
X70800D01*
G36*
X13541Y20056D02*
X13614Y20273D01*
X13615Y20275D01*
X13616Y20278D01*
X13617Y20280D01*
X13624Y20294D01*
X13697Y20402D01*
X13788Y20496D01*
X13894Y20573D01*
X14011Y20630D01*
X14137Y20666D01*
X14267Y20680D01*
X14397Y20671D01*
X14524Y20639D01*
X14644Y20586D01*
X14752Y20513D01*
X14846Y20422D01*
X14923Y20316D01*
X14980Y20199D01*
X15016Y20073D01*
X15030Y19943D01*
X15021Y19813D01*
X14989Y19686D01*
X14936Y19566D01*
X14863Y19458D01*
X14772Y19364D01*
X14666Y19287D01*
X14549Y19230D01*
X14423Y19194D01*
X14293Y19180D01*
X14163Y19189D01*
X14036Y19221D01*
X13916Y19274D01*
X13808Y19347D01*
X13714Y19438D01*
X13637Y19544D01*
X13580Y19661D01*
X13544Y19787D01*
X13530Y19917D01*
X13539Y20048D01*
X13540Y20050D01*
X13540Y20053D01*
X13541Y20056D01*
G37*
G36*
Y40055D02*
X13614Y40273D01*
X13615Y40275D01*
X13616Y40278D01*
X13617Y40280D01*
X13624Y40294D01*
X13697Y40402D01*
X13788Y40496D01*
X13894Y40573D01*
X14011Y40630D01*
X14137Y40666D01*
X14267Y40680D01*
X14397Y40671D01*
X14524Y40639D01*
X14644Y40586D01*
X14752Y40513D01*
X14846Y40422D01*
X14923Y40316D01*
X14980Y40199D01*
X15016Y40073D01*
X15030Y39943D01*
X15021Y39813D01*
X14989Y39686D01*
X14936Y39566D01*
X14863Y39458D01*
X14772Y39364D01*
X14666Y39287D01*
X14549Y39230D01*
X14423Y39194D01*
X14293Y39180D01*
X14163Y39189D01*
X14036Y39221D01*
X13916Y39274D01*
X13808Y39347D01*
X13714Y39438D01*
X13637Y39544D01*
X13580Y39661D01*
X13544Y39787D01*
X13530Y39917D01*
X13539Y40048D01*
X13540Y40050D01*
X13540Y40053D01*
X13541Y40055D01*
G37*
G54D34*
X19750Y17380D02*
X19800D01*
X18700Y16980D02*
X18750D01*
X18700Y17780D02*
X18750D01*
X19750Y37380D02*
X19800D01*
X18700Y36980D02*
X18750D01*
X18700Y37780D02*
X18750D01*
G54D27*
X69700Y66000D02*
X71300D01*
G54D16*
X69100Y66650D02*
X71900D01*
X69100Y65350D02*
X71900D01*
G54D27*
X69700Y63000D02*
X71300D01*
G54D16*
X69100Y63650D02*
X71900D01*
X69100Y62350D02*
X71900D01*
G54D27*
X73200Y66000D02*
X74800D01*
G54D16*
X72600Y66650D02*
X75400D01*
X72600Y65350D02*
X75400D01*
G54D27*
X73200Y63000D02*
X74800D01*
G54D16*
X72600Y63650D02*
X75400D01*
X72600Y62350D02*
X75400D01*
G54D23*
X59600Y15600D02*
Y15800D01*
X60150Y15600D02*
Y15800D01*
X62525Y15600D02*
Y15800D01*
X63075Y15600D02*
Y15800D01*
X60150Y16850D02*
Y17050D01*
X59600Y16850D02*
Y17050D01*
X63075Y16850D02*
Y17050D01*
X62525Y16850D02*
Y17050D01*
G54D31*
X84000Y26750D02*
Y27250D01*
X81000Y26750D02*
Y27250D01*
G54D15*
X43700Y51600D02*
X43800D01*
G54D16*
X43350Y52000D02*
X44150D01*
X43350Y51200D02*
X44150D01*
G54D15*
X43700Y53400D02*
X43800D01*
G54D16*
X43350Y53800D02*
X44150D01*
X43350Y53000D02*
X44150D01*
G54D15*
X53450Y58600D02*
X53550D01*
G54D16*
X53100Y59000D02*
X53900D01*
X53100Y58200D02*
X53900D01*
G54D15*
X53450Y60400D02*
X53550D01*
G54D16*
X53100Y60800D02*
X53900D01*
X53100Y60000D02*
X53900D01*
G54D15*
X62250Y27800D02*
X62350D01*
G54D16*
X61900Y28200D02*
X62700D01*
X61900Y27400D02*
X62700D01*
G54D15*
X62250Y29600D02*
X62350D01*
G54D16*
X61900Y30000D02*
X62700D01*
X61900Y29200D02*
X62700D01*
G54D15*
X78450Y19100D02*
X78550D01*
G54D16*
X78100Y19500D02*
X78900D01*
X78100Y18700D02*
X78900D01*
G54D15*
X78450Y20900D02*
X78550D01*
G54D16*
X78100Y21300D02*
X78900D01*
X78100Y20500D02*
X78900D01*
G54D15*
X80650Y19100D02*
X80750D01*
G54D16*
X80300Y19500D02*
X81100D01*
X80300Y18700D02*
X81100D01*
G54D15*
X80650Y20900D02*
X80750D01*
G54D16*
X80300Y21300D02*
X81100D01*
X80300Y20500D02*
X81100D01*
G54D15*
X85950Y18100D02*
X86050D01*
G54D16*
X85600Y18500D02*
X86400D01*
X85600Y17700D02*
X86400D01*
G54D15*
X85950Y19900D02*
X86050D01*
G54D16*
X85600Y20300D02*
X86400D01*
X85600Y19500D02*
X86400D01*
G54D15*
X86450Y26100D02*
X86550D01*
G54D16*
X86100Y26500D02*
X86900D01*
X86100Y25700D02*
X86900D01*
G54D15*
X86450Y27900D02*
X86550D01*
G54D16*
X86100Y28300D02*
X86900D01*
X86100Y27500D02*
X86900D01*
G54D15*
X88450Y16100D02*
X88550D01*
G54D16*
X88100Y16500D02*
X88900D01*
X88100Y15700D02*
X88900D01*
G54D15*
X88450Y20600D02*
X88550D01*
G54D16*
X88100Y21000D02*
X88900D01*
X88100Y20200D02*
X88900D01*
G54D15*
X88450Y22400D02*
X88550D01*
G54D16*
X88100Y22800D02*
X88900D01*
X88100Y22000D02*
X88900D01*
G54D15*
X88450Y17900D02*
X88550D01*
G54D16*
X88100Y18300D02*
X88900D01*
X88100Y17500D02*
X88900D01*
G54D15*
X92950Y27100D02*
X93050D01*
G54D16*
X92600Y27500D02*
X93400D01*
X92600Y26700D02*
X93400D01*
G54D15*
X92950Y28900D02*
X93050D01*
G54D16*
X92600Y29300D02*
X93400D01*
X92600Y28500D02*
X93400D01*
G54D15*
X92950Y31100D02*
X93050D01*
G54D16*
X92600Y31500D02*
X93400D01*
X92600Y30700D02*
X93400D01*
G54D15*
X92950Y32900D02*
X93050D01*
G54D16*
X92600Y33300D02*
X93400D01*
X92600Y32500D02*
X93400D01*
G54D15*
X94950Y23100D02*
X95050D01*
G54D16*
X94600Y23500D02*
X95400D01*
X94600Y22700D02*
X95400D01*
G54D15*
X94950Y24900D02*
X95050D01*
G54D16*
X94600Y25300D02*
X95400D01*
X94600Y24500D02*
X95400D01*
G54D35*
X47575Y52500D02*
X48325D01*
G54D16*
X47500Y52625D02*
X48400D01*
X47500Y52375D02*
X48400D01*
G54D35*
X47575Y52000D02*
X48325D01*
G54D16*
X47500Y52125D02*
X48400D01*
X47500Y51875D02*
X48400D01*
G54D35*
X47575Y51500D02*
X48325D01*
G54D16*
X47500Y51625D02*
X48400D01*
X47500Y51375D02*
X48400D01*
G54D35*
X50675Y51500D02*
X51425D01*
G54D16*
X50600Y51625D02*
X51500D01*
X50600Y51375D02*
X51500D01*
G54D35*
X50675Y52000D02*
X51425D01*
G54D16*
X50600Y52125D02*
X51500D01*
X50600Y51875D02*
X51500D01*
G54D35*
X50675Y52500D02*
X51425D01*
G54D16*
X50600Y52625D02*
X51500D01*
X50600Y52375D02*
X51500D01*
G54D35*
X47575Y53000D02*
X48325D01*
G54D16*
X47500Y53125D02*
X48400D01*
X47500Y52875D02*
X48400D01*
G54D35*
X50675Y53000D02*
X51425D01*
G54D16*
X50600Y53125D02*
X51500D01*
X50600Y52875D02*
X51500D01*
G54D17*
X17800Y30500D02*
X18200D01*
G54D16*
X17300Y31050D02*
X18700D01*
X17300Y29950D02*
X18700D01*
G54D17*
X17800Y28500D02*
X18200D01*
G54D16*
X17300Y29050D02*
X18700D01*
X17300Y27950D02*
X18700D01*
G54D17*
X17800Y50500D02*
X18200D01*
G54D16*
X17300Y51050D02*
X18700D01*
X17300Y49950D02*
X18700D01*
G54D17*
X17800Y48500D02*
X18200D01*
G54D16*
X17300Y49050D02*
X18700D01*
X17300Y47950D02*
X18700D01*
G54D17*
X53800Y49500D02*
X54200D01*
G54D16*
X53300Y50050D02*
X54700D01*
X53300Y48950D02*
X54700D01*
G54D17*
X53800Y47500D02*
X54200D01*
G54D16*
X53300Y48050D02*
X54700D01*
X53300Y46950D02*
X54700D01*
G54D21*
X66975Y59525D02*
Y59875D01*
X70025Y59525D02*
Y59875D01*
X79975Y33325D02*
Y33675D01*
X83025Y33325D02*
Y33675D01*
G54D31*
X65200Y30000D02*
Y30300D01*
X64250Y27500D02*
Y27800D01*
X66150Y27500D02*
Y27800D01*
X92000Y15600D02*
Y15900D01*
X91050Y18100D02*
Y18400D01*
X92950Y18100D02*
Y18400D01*
G54D27*
X42950Y58250D02*
X44550D01*
G54D16*
X42350Y58900D02*
X45150D01*
X42350Y57600D02*
X45150D01*
G54D27*
X39450Y58250D02*
X41050D01*
G54D16*
X38850Y58900D02*
X41650D01*
X38850Y57600D02*
X41650D01*
G54D27*
X42950Y61250D02*
X44550D01*
G54D16*
X42350Y61900D02*
X45150D01*
X42350Y60600D02*
X45150D01*
G54D27*
X39450Y61250D02*
X41050D01*
G54D16*
X38850Y61900D02*
X41650D01*
X38850Y60600D02*
X41650D01*
G36*
X83041Y31850D02*
X83600Y31291D01*
Y28709D01*
X83100Y28209D01*
Y26150D01*
X81900D01*
Y28209D01*
X81400Y28709D01*
Y31291D01*
X81959Y31850D01*
X83041D01*
G37*
G54D35*
X48750Y50325D02*
Y51075D01*
G54D16*
X48625Y50250D02*
Y51150D01*
X48875Y50250D02*
Y51150D01*
G54D35*
X49250Y50325D02*
Y51075D01*
G54D16*
X49125Y50250D02*
Y51150D01*
X49375Y50250D02*
Y51150D01*
G54D35*
X49750Y50325D02*
Y51075D01*
G54D16*
X49625Y50250D02*
Y51150D01*
X49875Y50250D02*
Y51150D01*
G54D35*
X50250Y50325D02*
Y51075D01*
G54D16*
X50125Y50250D02*
Y51150D01*
X50375Y50250D02*
Y51150D01*
G54D35*
X50250Y53425D02*
Y54175D01*
G54D16*
X50125Y53350D02*
Y54250D01*
X50375Y53350D02*
Y54250D01*
G54D35*
X49750Y53425D02*
Y54175D01*
G54D16*
X49625Y53350D02*
Y54250D01*
X49875Y53350D02*
Y54250D01*
G54D35*
X49250Y53425D02*
Y54175D01*
G54D16*
X49125Y53350D02*
Y54250D01*
X49375Y53350D02*
Y54250D01*
G54D35*
X48750Y53425D02*
Y54175D01*
G54D16*
X48625Y53350D02*
Y54250D01*
X48875Y53350D02*
Y54250D01*
G54D36*
X6500Y4250D02*
X8500D01*
X23120Y12500D02*
X25120D01*
X38500Y4250D02*
X36500D01*
X71000Y12500D02*
X69000D01*
X94500D02*
X92500D01*
G54D27*
X39650Y55500D02*
X40350D01*
G54D16*
X39050Y56150D02*
X40950D01*
X39050Y54850D02*
X40950D01*
G54D27*
X39650Y52500D02*
X40350D01*
G54D16*
X39050Y53150D02*
X40950D01*
X39050Y51850D02*
X40950D01*
G54D27*
X82650Y21000D02*
X83350D01*
G54D16*
X82050Y21650D02*
X83950D01*
X82050Y20350D02*
X83950D01*
G54D27*
X82650Y18000D02*
X83350D01*
G54D16*
X82050Y18650D02*
X83950D01*
X82050Y17350D02*
X83950D01*
G54D37*
X63900Y37200D02*
Y37500D01*
X62200Y37200D02*
Y37500D01*
X63900Y39600D02*
Y39900D01*
X62200Y39600D02*
Y39900D01*
G54D38*
X87100Y43185D02*
X87600D01*
X87100Y44455D02*
X87600D01*
X87100Y45725D02*
X87600D01*
X87100Y46995D02*
X87600D01*
X87100Y48265D02*
X87600D01*
X87100Y49535D02*
X87600D01*
X87100Y50805D02*
X87600D01*
X87100Y52075D02*
X87600D01*
X87100Y53345D02*
X87600D01*
X87100Y54615D02*
X87600D01*
X87100Y55885D02*
X87600D01*
X87100Y57155D02*
X87600D01*
X87100Y58425D02*
X87600D01*
X87100Y59695D02*
X87600D01*
X87100Y60965D02*
X87600D01*
G54D21*
X78900Y15350D02*
X79200D01*
X76800Y16000D02*
X77100D01*
X78900Y16650D02*
X79200D01*
X80800Y22850D02*
X81100D01*
X82900Y23500D02*
X83200D01*
X80800Y24150D02*
X81100D01*
G36*
X48950Y53100D02*
X50300D01*
X50309Y53099D01*
X50317Y53097D01*
X50325Y53093D01*
X50332Y53088D01*
X50338Y53082D01*
X50343Y53075D01*
X50347Y53067D01*
X50349Y53059D01*
X50350Y53050D01*
Y51450D01*
X50349Y51441D01*
X50347Y51433D01*
X50343Y51425D01*
X50338Y51418D01*
X50332Y51412D01*
X50325Y51407D01*
X50317Y51403D01*
X50309Y51401D01*
X50300Y51400D01*
X48700D01*
X48691Y51401D01*
X48683Y51403D01*
X48675Y51407D01*
X48668Y51412D01*
X48662Y51418D01*
X48657Y51425D01*
X48653Y51433D01*
X48651Y51441D01*
X48650Y51450D01*
Y52800D01*
X48651Y52808D01*
X48653Y52817D01*
X48657Y52825D01*
X48662Y52832D01*
X48665Y52835D01*
X48915Y53085D01*
X48922Y53091D01*
X48929Y53095D01*
X48937Y53098D01*
X48946Y53100D01*
X48950Y53100D01*
G37*
G54D39*
X57150Y7450D02*
Y5500D01*
G54D40*
X81960Y43880D03*
Y48960D03*
Y59120D03*
Y54040D03*
G54D21*
X59500Y44425D02*
Y44475D01*
Y46525D02*
Y46575D01*
X76150Y18800D02*
Y19100D01*
X74850Y18800D02*
Y19100D01*
X75500Y20900D02*
Y21200D01*
X86000Y21800D02*
Y22100D01*
X85350Y23900D02*
Y24200D01*
X86650Y23900D02*
Y24200D01*
G54D41*
X49900Y51850D03*
X49100D03*
X49900Y52650D03*
X49100D03*
X62130Y7150D03*
X64150D03*
X62130Y7930D03*
X64150Y7900D03*
X62130Y8680D03*
X64150Y8700D03*
G54D42*
X84500Y41330D03*
Y61670D03*
G54D43*
X60500Y56600D02*
Y57400D01*
G54D21*
X73850Y34300D02*
X75750D01*
X73850Y36500D02*
X75750D01*
G54D44*
X95100Y38085D03*
Y64915D03*
G54D21*
X77825Y36475D02*
X78175D01*
X75325Y41925D02*
X75675D01*
X75325Y38875D02*
X75675D01*
X77825Y39525D02*
X78175D01*
X76825Y61575D02*
X77175D01*
X76825Y64625D02*
X77175D01*
G54D45*
X92120Y46420D03*
Y56580D03*
G54D46*
X4610Y-7464D02*
X4999Y-6750D01*
Y-9250D01*
X1750Y-6750D02*
Y-9250D01*
X3516D01*
X15659Y-7042D02*
X15451Y-6847D01*
X15036Y-6750D01*
X14828D01*
X14516Y-6847D01*
X14412Y-6945D01*
X14308Y-7237D01*
Y-7432D01*
X14412Y-7627D01*
X14620Y-7724D01*
X15036Y-7821D01*
X15347Y-7919D01*
X15659Y-8081D01*
X15763Y-8373D01*
Y-8568D01*
X15659Y-8860D01*
X15451Y-9055D01*
X15036Y-9250D01*
X14828D01*
X14412Y-9153D01*
X14101Y-8860D01*
X11501Y-7984D02*
X12981D01*
X13267Y-6750D02*
X11501D01*
Y-9250D01*
X13267D01*
X9888Y-7984D02*
X10563Y-9250D01*
X8901D02*
Y-6750D01*
X9992D01*
X10173Y-6847D01*
X10381Y-7042D01*
X10459Y-7237D01*
Y-7529D01*
X10277Y-7919D01*
X10069Y-7984D01*
X8901D01*
X22446Y-9250D02*
Y-6750D01*
X21563D02*
X23329D01*
X20521Y-7042D02*
X20314Y-6847D01*
X19898Y-6750D01*
X19690D01*
X19379Y-6847D01*
X19275Y-6945D01*
X19171Y-7237D01*
Y-7432D01*
X19275Y-7627D01*
X19482Y-7724D01*
X19898Y-7821D01*
X20210Y-7919D01*
X20521Y-8081D01*
X20625Y-8373D01*
Y-8568D01*
X20521Y-8860D01*
X20314Y-9055D01*
X19898Y-9250D01*
X19690D01*
X19275Y-9153D01*
X18963Y-8860D01*
X17038Y-6750D02*
X17844D01*
X17454Y-9250D02*
Y-6750D01*
X17038Y-9250D02*
X17844D01*
G54D47*
X0Y-10000D02*
Y-6000D01*
X24500D01*
Y-10000D01*
X0D01*
M02*
