*
%FSLAX43Y43*%
%MOMM*%
%ADD10C,0.100000*%
%IPPOS*%
%LNrout*%
%LPD*%
G75*
G54D10*
X0Y68500D02*
Y78500D01*
X97000D01*
Y12750D01*
X95000D01*
G03X94000Y11750I0J-1000D01*
G03X95000Y10750I1000J0D01*
G01X97000D01*
Y0D01*
X67300D01*
Y10750D01*
X68500D01*
G03X69500Y11750I0J1000D01*
G03X68500Y12750I-1000J0D01*
G01X66300D01*
G03X65300Y11750I0J-1000D01*
G01Y500D01*
X64800Y0D01*
X58600D01*
X58100Y500D01*
Y7450D01*
G03X57150Y8400I-950J0D01*
G03X56200Y7450I0J-950D01*
G01Y500D01*
X55700Y0D01*
X45500D01*
X45000Y500D01*
Y10925D01*
G03X43175Y12750I-1825J0D01*
G03X41350Y10925I0J-1825D01*
G01Y4500D01*
X39000D01*
G03X38000Y3500I0J-1000D01*
G03X39000Y2500I1000J0D01*
G01X41350D01*
Y0D01*
X0D01*
Y2500D01*
X6000D01*
G03X7000Y3500I0J1000D01*
G03X6000Y4500I-1000J0D01*
G01X0D01*
Y68500D01*
X12750Y2500D02*
X16000D01*
G03X17000Y3500I0J1000D01*
G01Y10750D01*
X22620D01*
G03X23620Y11750I0J1000D01*
G03X22620Y12750I-1000J0D01*
G01X16000D01*
G03X15000Y11750I0J-1000D01*
G01Y4500D01*
X9000D01*
G03X8000Y3500I0J-1000D01*
G03X9000Y2500I1000J0D01*
G01X12750D01*
X35175Y4500D02*
X33350D01*
Y11750D01*
G03X32350Y12750I-1000J0D01*
G01X25620D01*
G03X24620Y11750I0J-1000D01*
G03X25620Y10750I1000J0D01*
G01X31350D01*
Y3500D01*
G03X32350Y2500I1000J0D01*
G01X36000D01*
G03X37000Y3500I0J1000D01*
G03X36000Y4500I-1000J0D01*
G01X35175D01*
X90250Y12750D02*
X71500D01*
G03X70500Y11750I0J-1000D01*
G03X71500Y10750I1000J0D01*
G01X92000D01*
G03X93000Y11750I0J1000D01*
G03X92000Y12750I-1000J0D01*
G01X90250D01*
M02*
